<svg viewBox="0 270.336 1028.096 448.512" xmlns="http://www.w3.org/2000/svg" style="max-height: 500px" width="1028.096" height="448.512">
<g>
<path fill="rgba(0,0,0,1)" d="M 507.06 461.04 C507.06,445.11 507.39,431.95 507.78,431.79 C508.18,431.63 516.49,431.63 526.25,431.79 L 538.63 432.00 L 509.00 432.00 L 509.00 489.00 L 544.00 489.00 L 544.00 481.00 L 533.08 481.00 C527.08,481.00 521.45,480.73 520.58,480.39 C520.36,480.31 520.16,480.18 519.99,480.00 L 545.00 480.00 L 545.00 490.00 L 507.06 490.00 ZM 849.94 572.00 L 849.91 572.00 L 850.06 559.50 L 850.21 547.00 L 891.00 547.00 L 891.00 532.00 L 892.00 532.00 L 892.00 549.10 L 871.25 548.94 L 850.50 548.77 L 850.22 560.38 L 849.94 572.00 ZM 863.49 383.26 C863.36,383.22 863.26,383.19 863.21,383.15 C862.27,382.56 862.00,379.87 862.21,373.42 L 862.50 364.50 L 888.00 363.94 L 888.00 355.00 L 875.94 355.00 C868.16,355.00 864.10,354.65 864.50,354.00 C864.76,353.58 864.70,353.22 864.40,353.07 C865.46,353.10 869.88,353.07 874.60,353.01 C879.61,352.94 884.90,353.19 886.35,353.55 C888.81,354.17 889.00,354.61 889.00,359.61 L 889.00 365.00 L 862.92 365.00 L 863.21 374.25 L 863.49 383.26 ZM 458.98 377.94 C458.96,376.45 459.04,374.60 459.09,372.30 L 459.27 364.00 L 484.00 364.00 L 484.00 355.00 L 471.75 354.98 C463.47,354.97 459.99,354.66 461.00,354.00 C461.89,353.43 462.14,353.18 461.72,353.08 C463.98,353.11 468.45,353.15 473.25,353.18 L 485.00 353.25 L 485.00 364.94 L 459.50 365.50 L 459.20 372.48 C459.10,374.70 458.99,376.49 458.98,377.94 ZM 422.57 527.78 C423.24,523.37 423.50,519.72 423.23,517.31 C422.96,514.94 423.14,513.00 423.62,513.00 C424.10,513.00 424.50,504.04 424.50,493.10 C424.50,481.82 424.12,473.43 423.62,473.74 C423.13,474.04 422.97,472.76 423.25,470.89 C423.50,469.30 423.50,467.21 423.29,464.71 C425.87,482.30 426.35,494.28 425.09,508.00 C424.44,515.12 423.62,521.62 422.57,527.78 ZM 766.26 576.80 C766.09,573.89 766.00,568.48 766.05,562.53 L 766.18 547.00 L 775.15 547.00 C780.87,547.00 783.89,547.36 783.50,548.00 C783.14,548.58 784.07,549.00 785.69,549.00 C787.10,549.01 788.69,549.47 790.20,550.21 C787.91,549.50 783.50,549.04 777.46,548.89 L 766.50 548.62 L 766.22 563.01 C766.11,568.76 766.13,574.06 766.26,576.80 ZM 861.50 532.00 C838.86,532.01 833.58,532.27 832.43,533.43 C831.25,534.61 831.01,542.25 831.00,580.33 L 831.00 532.00 L 861.50 532.00 ZM 683.55 532.00 C669.50,532.01 665.54,532.31 664.43,533.43 C663.25,534.61 663.01,542.25 663.00,580.33 L 663.00 532.00 L 682.94 532.00 C683.14,532.00 683.35,532.00 683.55,532.00 ZM 461.48 532.00 C453.55,532.01 450.48,532.38 449.43,533.43 C448.25,534.61 448.01,542.25 448.00,580.33 L 448.00 532.00 L 460.48 532.00 C460.82,532.00 461.15,532.00 461.48,532.00 ZM 238.73 691.62 C240.17,691.47 241.00,691.25 241.00,690.96 C241.00,690.34 243.29,690.02 246.75,690.17 C250.14,690.31 254.29,690.01 258.92,689.33 C252.06,690.49 245.28,691.26 238.73,691.62 ZM 840.03 432.00 L 836.10 432.00 C833.45,432.00 831.77,431.89 830.72,432.65 C829.28,433.68 829.00,436.33 829.01,443.08 L 828.91 430.74 L 831.20 431.36 C832.47,431.70 834.97,431.98 836.77,431.99 L 840.03 432.00 ZM 890.04 384.00 L 878.80 383.98 C873.37,383.98 868.34,383.80 865.51,383.54 L 878.30 383.78 L 890.04 384.00 ZM 419.17 443.92 C417.59,438.14 415.62,431.89 413.32,425.50 C411.37,420.05 409.17,414.71 406.73,409.50 C411.93,420.54 416.12,432.10 419.17,443.92 ZM 281.54 684.21 C294.39,680.46 307.83,675.27 318.55,669.60 C307.37,675.51 294.65,680.48 281.54,684.21 ZM 327.03 324.16 C320.12,320.41 312.13,316.62 304.28,313.33 C309.32,315.39 314.21,317.56 318.23,319.55 C321.26,321.06 324.19,322.59 327.03,324.16 ZM 359.10 346.70 C352.51,340.98 345.48,335.65 338.04,330.74 C345.40,335.50 352.28,340.72 359.10,346.70 ZM 392.53 384.38 C386.63,375.62 379.98,367.34 372.64,359.62 C379.92,367.19 386.58,375.50 392.53,384.38 ZM 772.79 579.92 C769.46,579.81 766.82,579.51 766.52,579.03 C766.48,578.97 766.45,578.84 766.42,578.63 C766.42,578.66 766.43,578.68 766.44,578.70 C766.68,579.33 769.37,579.74 772.79,579.92 ZM 796.64 557.71 C796.96,556.68 795.99,554.82 794.47,553.17 C796.12,554.76 797.09,556.48 796.64,557.71 ZM 413.58 561.50 C416.11,554.56 418.32,547.20 419.99,540.40 C418.29,547.48 416.19,554.34 413.58,561.50 ZM 459.64 352.52 C459.11,351.76 459.00,349.89 459.00,345.62 C459.00,349.40 459.19,351.59 459.64,352.52 ZM 864.02 353.00 C863.87,352.97 863.74,352.80 863.62,352.49 C863.74,352.74 863.87,352.91 864.02,353.00 ZM 475.07 384.00 C471.20,384.00 468.24,384.04 466.00,383.96 C468.25,384.04 471.21,384.00 475.07,384.00 ZM 892.80 388.75 L 893.11 384.05 L 893.11 384.05 L 892.81 388.75 Z"/>
<path fill="rgba(30,68,43,1)" d="M 208.00 690.49 C172.19,686.27 140.52,674.14 112.30,653.84 C95.60,641.82 73.79,618.87 62.23,601.13 C50.20,582.67 38.61,555.15 35.03,536.50 C34.40,533.20 33.63,529.83 33.31,529.00 C33.00,528.17 32.65,526.60 32.53,525.50 C30.06,502.64 29.80,497.23 30.53,483.50 C31.62,462.69 31.62,462.68 32.22,461.00 C32.51,460.17 34.10,453.88 35.75,447.00 C44.12,412.03 61.23,381.13 86.96,354.50 C104.87,335.96 136.72,316.35 162.50,307.98 C168.00,306.19 172.95,304.42 173.50,304.04 C174.05,303.66 175.98,303.27 177.79,303.16 C179.60,303.05 182.95,302.32 185.22,301.53 C187.50,300.75 189.73,300.34 190.18,300.61 C190.63,300.89 191.56,300.76 192.25,300.32 C192.94,299.87 194.40,299.42 195.50,299.31 C207.40,298.09 245.14,297.35 246.69,298.31 C247.26,298.66 250.37,299.07 253.61,299.22 C256.85,299.37 259.74,299.83 260.04,300.23 C260.34,300.62 262.70,301.07 265.29,301.23 C267.87,301.38 269.99,301.89 270.00,302.36 C270.00,302.83 271.12,302.93 272.50,302.59 C273.88,302.24 275.00,302.34 275.00,302.79 C275.00,303.25 277.36,304.21 280.25,304.94 C295.88,308.85 321.74,320.22 336.23,329.56 C372.50,352.95 399.22,386.21 413.32,425.50 C420.38,445.16 424.39,463.50 423.25,470.89 C422.97,472.76 423.13,474.04 423.62,473.74 C424.12,473.43 424.50,481.82 424.50,493.10 C424.50,504.04 424.10,513.00 423.62,513.00 C423.14,513.00 422.96,514.94 423.23,517.31 C424.08,524.85 419.79,544.45 413.58,561.50 C400.96,596.08 380.57,623.63 346.94,651.52 C342.43,655.26 326.67,665.30 318.55,669.60 C296.53,681.26 263.01,690.86 246.75,690.17 C243.29,690.02 241.00,690.34 241.00,690.96 C241.00,692.36 221.49,692.09 208.00,690.49 ZM 217.88 669.99 C219.90,671.17 231.69,671.30 232.41,670.15 C232.69,669.69 237.78,669.03 243.72,668.70 C263.79,667.58 284.24,661.89 305.50,651.51 C312.65,648.02 321.45,643.17 325.05,640.73 C328.65,638.29 332.10,636.12 332.72,635.90 C334.45,635.28 342.66,628.07 348.25,622.25 C351.02,619.36 353.89,617.00 354.61,617.00 C355.34,617.00 356.35,616.21 356.87,615.25 C357.39,614.29 360.81,609.90 364.48,605.50 C391.20,573.48 405.41,530.51 403.68,487.00 C402.77,464.07 398.83,445.99 390.06,424.50 C377.44,393.60 355.19,366.98 326.53,348.49 C297.17,329.55 267.91,320.52 232.00,319.32 C210.18,318.59 195.26,320.39 176.00,326.09 C128.64,340.10 89.59,372.78 68.54,416.03 C63.78,425.81 56.63,446.44 54.92,455.34 C45.01,507.00 54.84,554.88 83.75,595.69 C108.30,630.35 143.16,653.69 186.50,664.47 C192.55,665.98 198.18,667.46 199.00,667.75 C199.82,668.05 204.05,668.46 208.38,668.67 C212.72,668.88 216.99,669.47 217.88,669.99 ZM 448.70 629.37 C448.32,628.98 448.00,607.56 448.00,581.76 C448.00,542.44 448.23,534.63 449.43,533.43 C450.49,532.36 453.66,532.00 461.91,532.00 C472.27,532.00 473.04,532.14 474.41,534.25 C475.21,535.49 479.25,545.50 483.39,556.50 C495.44,588.51 497.44,593.31 498.90,593.80 C499.68,594.06 500.00,593.81 499.63,593.22 C499.28,592.64 499.40,592.02 499.90,591.84 C500.41,591.65 500.97,590.60 501.16,589.50 C501.35,588.40 501.77,587.28 502.11,587.00 C502.44,586.72 507.12,574.80 512.49,560.50 C517.87,546.20 522.71,533.94 523.26,533.25 C523.95,532.38 527.81,532.00 536.10,532.00 C547.57,532.00 547.98,532.07 548.51,534.25 C548.81,535.49 548.93,557.42 548.78,583.00 L 548.50 629.50 L 531.00 630.08 L 531.00 594.46 C531.00,568.49 530.69,558.94 529.87,559.21 C529.25,559.42 527.73,562.27 526.49,565.54 C522.45,576.21 512.35,602.35 509.89,608.50 L 507.49 614.50 L 498.73 614.79 L 489.96 615.08 L 488.15 610.79 C487.15,608.43 484.15,600.65 481.49,593.50 C478.82,586.35 476.39,580.28 476.07,580.00 C475.76,579.72 475.34,578.60 475.15,577.50 C474.96,576.40 474.51,575.28 474.15,575.00 C473.79,574.72 473.49,574.05 473.49,573.50 C473.45,571.31 469.78,562.00 468.95,562.00 C468.46,562.00 468.32,561.33 468.64,560.50 C468.95,559.67 468.72,559.00 468.12,559.00 C467.35,559.00 466.95,569.55 466.76,594.25 L 466.50 629.50 L 457.95 629.79 C453.25,629.94 449.09,629.76 448.70,629.37 ZM 910.50 532.50 L 929.87 532.23 C941.86,532.06 949.71,532.34 950.46,532.97 C951.13,533.52 953.44,534.09 955.59,534.24 C957.74,534.38 959.72,534.73 960.00,535.01 C960.28,535.29 962.75,536.56 965.50,537.83 C973.58,541.57 978.08,548.87 979.58,560.65 C980.78,570.10 975.10,581.77 966.28,587.98 C963.65,589.83 961.34,591.46 961.15,591.61 C960.96,591.75 965.59,600.00 971.45,609.96 C977.30,619.91 981.82,628.49 981.49,629.02 C981.15,629.56 976.68,630.00 971.54,630.00 L 962.19 630.00 L 958.69 623.25 C956.77,619.54 952.68,612.05 949.60,606.62 C946.52,601.19 944.00,596.35 944.00,595.87 C944.00,595.39 940.41,595.00 936.02,595.00 L 928.05 595.00 L 927.50 629.50 L 909.98 630.08 L 910.50 532.50 ZM 663.70 629.37 C663.32,628.98 663.00,607.56 663.00,581.76 C663.00,542.44 663.23,534.63 664.43,533.43 C665.56,532.29 669.66,532.00 684.37,532.00 C695.63,532.00 703.12,532.39 703.50,533.00 C703.84,533.55 705.06,534.00 706.22,534.00 C708.99,534.00 719.33,537.21 720.11,538.31 C720.45,538.78 721.00,539.02 721.35,538.84 C721.69,538.65 723.72,540.62 725.86,543.21 C732.82,551.63 734.96,566.77 730.64,577.00 C728.23,582.68 722.35,588.68 716.22,591.69 C711.00,594.25 709.27,594.54 696.50,595.00 L 682.50 595.50 L 681.50 629.50 L 672.95 629.79 C668.25,629.94 664.09,629.76 663.70,629.37 ZM 748.00 532.00 L 767.94 532.00 C780.16,532.00 788.12,532.39 788.50,533.00 C788.84,533.55 790.03,534.00 791.14,534.00 C794.71,534.00 806.25,539.18 808.69,541.88 C809.99,543.32 812.27,546.75 813.75,549.50 C816.17,553.97 816.44,555.50 816.37,564.00 C816.32,570.33 815.77,574.67 814.73,577.00 C812.24,582.54 806.22,588.85 800.64,591.75 C795.96,594.19 794.20,594.48 781.00,594.96 L 766.50 595.50 L 765.50 629.50 L 748.00 630.08 L 748.00 532.00 ZM 563.46 626.75 C563.86,624.96 564.25,622.83 564.34,622.00 C564.43,621.17 564.77,620.28 565.10,620.00 C566.10,619.15 572.96,596.74 572.46,595.93 C572.20,595.51 572.38,595.02 572.85,594.84 C573.64,594.53 585.03,560.50 585.51,557.00 C585.63,556.17 586.10,554.60 586.57,553.50 C587.04,552.40 588.82,547.22 590.53,542.00 L 593.64 532.50 L 605.13 532.22 C616.23,531.95 616.67,532.02 617.78,534.22 C618.70,536.04 631.03,574.53 646.06,622.48 C647.09,625.77 647.57,628.83 647.12,629.28 C646.68,629.72 642.58,629.95 638.01,629.79 L 629.70 629.50 L 627.22 621.00 C625.85,616.33 624.28,612.21 623.74,611.86 C623.19,611.51 623.05,610.72 623.43,610.11 C623.93,609.31 618.93,609.00 605.58,609.00 L 587.04 609.00 L 586.40 611.75 C585.45,615.79 581.97,626.19 580.88,628.23 C580.08,629.71 578.53,630.00 571.34,630.00 L 562.75 630.00 ZM 831.68 629.35 C831.31,628.97 831.00,607.56 831.00,581.76 C831.00,542.44 831.23,534.63 832.43,533.43 C833.60,532.26 839.00,532.00 862.43,532.00 L 891.00 532.00 L 891.00 547.00 L 850.21 547.00 L 850.06 559.50 L 849.91 572.00 L 887.08 572.00 L 886.50 587.50 L 868.22 587.77 L 849.94 588.05 L 850.22 601.27 L 850.50 614.50 L 893.09 615.04 L 892.50 629.50 L 862.43 629.76 C845.89,629.91 832.06,629.72 831.68,629.35 ZM 787.45 579.02 C788.87,578.48 791.67,576.39 793.69,574.38 C797.04,571.03 797.36,570.23 797.42,564.86 C797.47,561.64 797.14,559.00 796.69,559.00 C796.25,559.00 796.15,558.56 796.49,558.02 C798.23,555.20 790.82,549.01 785.69,549.00 C784.07,549.00 783.14,548.58 783.50,548.00 C783.89,547.36 780.87,547.00 775.15,547.00 L 766.18 547.00 L 766.05 562.53 C765.98,571.07 766.19,578.50 766.52,579.03 C767.30,580.30 784.11,580.29 787.45,579.02 ZM 948.54 577.93 C948.91,577.34 949.77,577.08 950.46,577.35 C953.13,578.37 960.87,571.22 959.50,569.00 C959.16,568.45 959.36,568.00 959.94,568.00 C961.63,568.00 961.16,559.83 959.25,556.03 C956.28,550.15 952.41,548.68 939.62,548.58 L 928.50 548.50 L 928.22 562.45 C928.07,570.13 928.17,576.99 928.44,577.70 C929.07,579.35 947.54,579.56 948.54,577.93 ZM 703.52 578.99 C704.98,578.44 707.97,576.11 710.18,573.82 C713.48,570.38 714.08,569.15 713.61,566.82 C713.24,564.97 713.47,563.97 714.28,563.92 C715.08,563.87 715.12,563.69 714.40,563.39 C713.79,563.14 713.47,561.93 713.68,560.72 C714.26,557.41 710.57,552.27 706.28,550.42 C703.73,549.32 699.25,548.74 692.50,548.65 L 682.50 548.50 L 682.22 562.95 C682.07,570.90 682.17,577.99 682.44,578.70 C683.05,580.30 699.49,580.52 703.52,578.99 ZM 617.22 591.25 C617.66,589.18 616.03,582.00 615.13,582.00 C614.78,582.00 614.40,580.57 614.28,578.82 C614.15,577.08 613.70,575.39 613.28,575.08 C612.85,574.76 612.49,574.05 612.48,573.50 C612.43,571.11 609.55,562.00 608.84,562.00 C608.41,562.00 608.32,561.33 608.64,560.50 C608.95,559.67 608.73,559.00 608.14,559.00 C607.55,559.00 607.32,558.33 607.64,557.50 C607.95,556.67 607.73,556.00 607.14,556.00 C606.55,556.00 606.32,555.33 606.64,554.50 C606.98,553.62 606.65,553.00 605.86,553.01 C605.06,553.01 603.71,555.61 602.60,559.26 C601.56,562.69 600.09,567.53 599.34,570.00 C598.59,572.47 597.11,577.20 596.06,580.50 C593.52,588.49 592.90,591.57 593.68,592.35 C594.04,592.71 599.40,593.00 605.59,593.00 C615.51,593.00 616.90,592.79 617.22,591.25 ZM 781.13 489.43 L 781.31 460.75 L 781.50 432.44 L 782.50 432.50 L 782.77 460.43 C782.97,482.11 782.75,488.54 781.77,489.17 C781.62,489.26 781.41,489.34 781.13,489.43 ZM 831.00 432.47 L 830.98 448.75 C830.97,460.88 830.68,465.09 829.90,464.00 C829.06,462.82 828.94,463.03 829.32,465.00 C829.59,466.38 829.48,468.38 829.07,469.45 C829.01,469.63 828.93,469.76 828.84,469.85 C829.04,467.51 829.14,460.16 829.07,451.68 C828.95,438.37 828.78,434.04 830.72,432.65 C830.81,432.58 830.90,432.53 831.00,432.47 ZM 691.01 327.00 L 684.50 327.00 C681.54,327.00 679.02,327.17 678.24,327.41 C677.81,326.34 677.61,325.72 677.70,325.64 C678.05,325.29 680.96,325.00 684.17,325.00 L 690.01 325.00 L 691.01 327.00 ZM 996.42 433.17 L 993.10 432.62 C988.02,431.78 986.93,431.72 984.20,436.46 L 987.12 431.00 L 992.06 431.00 C994.78,431.00 997.00,431.38 997.00,431.85 C997.00,431.96 996.79,432.42 996.42,433.17 ZM 773.73 489.99 L 776.56 489.80 L 780.76 489.52 C779.64,489.79 777.91,489.98 776.25,489.98 L 773.73 489.99 ZM 827.07 468.60 C826.12,467.28 824.74,464.94 822.69,461.26 C824.38,464.27 825.95,466.90 827.07,468.60 ZM 704.98 353.98 C704.70,353.99 701.44,347.92 697.74,340.50 C701.50,348.00 704.70,353.98 704.98,353.98 ZM 773.82 432.00 L 772.00 432.00 L 772.00 431.90 L 773.82 432.00 ZM 688.31 348.31 L 698.63 368.50 L 698.92 380.50 C699.00,383.80 699.13,386.89 699.27,389.21 C699.13,386.89 699.00,383.80 698.92,380.50 L 698.62 368.50 L 688.31 348.31 ZM 982.70 460.87 C981.89,459.58 983.27,456.47 989.18,446.22 C983.27,456.47 981.89,459.59 982.70,460.87 ZM 979.99 444.08 C978.26,446.97 976.78,448.99 976.29,448.99 C975.88,449.00 974.68,447.50 973.20,445.24 C974.68,447.50 975.88,448.99 976.29,448.99 C976.76,448.99 978.24,446.99 979.99,444.08 ZM 836.10 432.00 L 833.75 432.00 C834.43,431.99 835.21,432.00 836.10,432.00 Z"/>
<path fill="rgba(64,64,65,1)" d="M 579.76 394.00 C567.64,390.35 561.77,379.19 561.97,360.14 C562.17,341.18 568.11,330.09 579.93,326.60 C596.46,321.73 610.85,328.82 615.98,344.38 C617.94,350.32 618.18,352.69 617.76,361.88 C616.99,378.68 611.96,388.39 601.58,393.10 C597.23,395.08 585.01,395.58 579.76,394.00 ZM 905.00 327.00 L 913.75 327.00 L 922.50 327.00 L 928.73 343.25 C932.16,352.19 935.76,361.71 936.73,364.42 C937.71,367.12 938.99,369.50 939.59,369.70 C940.21,369.90 944.05,360.78 948.50,348.53 L 956.33 327.00 L 974.03 327.00 L 973.50 393.50 L 962.00 394.10 L 962.00 370.11 C962.00,356.91 961.62,345.88 961.15,345.59 C960.68,345.30 957.26,353.49 953.55,363.78 C949.84,374.08 946.35,383.06 945.78,383.75 C945.18,384.48 942.41,385.00 939.10,385.00 L 933.45 385.00 L 926.50 366.25 C922.68,355.94 919.20,347.35 918.77,347.16 C918.34,346.98 918.22,346.45 918.51,345.98 C918.80,345.52 918.58,344.86 918.02,344.51 C917.34,344.09 917.00,352.22 917.00,368.94 L 917.00 394.00 L 905.00 394.00 L 905.00 327.00 ZM 853.67 489.33 C853.30,488.97 853.00,475.89 853.00,460.28 L 853.00 431.89 L 866.50 432.12 C873.92,432.25 880.00,432.72 880.00,433.18 C880.00,433.63 880.81,434.00 881.80,434.00 C885.67,434.00 892.04,439.39 894.80,445.00 C897.19,449.86 897.50,451.66 897.50,460.50 C897.50,472.60 895.63,478.29 890.00,483.38 C884.64,488.23 877.94,490.00 864.99,490.00 C859.13,490.00 854.03,489.70 853.67,489.33 ZM 638.50 393.10 C633.61,390.84 629.65,386.64 628.14,382.10 C625.98,375.64 626.37,375.00 632.50,375.00 C637.16,375.00 638.00,375.28 638.00,376.83 C638.00,377.83 639.13,379.71 640.50,381.00 C642.62,382.99 644.00,383.34 649.44,383.28 C657.24,383.19 660.37,380.98 660.56,375.42 C660.72,370.83 658.65,369.23 646.46,364.51 C632.48,359.09 627.43,353.93 627.87,345.50 C628.48,333.96 632.55,328.94 643.68,325.95 C649.28,324.45 651.97,324.15 653.45,324.87 C654.58,325.42 657.16,326.37 659.19,326.99 C666.26,329.15 671.00,334.75 671.00,340.95 C671.00,343.92 670.88,344.00 666.24,344.00 C662.02,344.00 661.35,343.69 660.26,341.25 C658.72,337.82 654.90,336.00 649.25,336.00 C645.84,336.00 644.38,336.57 642.45,338.65 C641.10,340.10 640.00,342.32 640.00,343.57 C640.00,346.59 644.73,351.17 649.58,352.86 C666.47,358.70 673.02,364.74 672.98,374.45 C672.95,380.15 670.44,386.42 666.85,389.72 C661.13,394.98 646.37,396.75 638.50,393.10 ZM 751.50 393.78 C744.53,391.31 739.00,384.19 739.00,377.68 C739.00,375.13 739.24,375.00 743.99,375.00 C748.74,375.00 749.04,375.16 750.44,378.51 C752.15,382.61 754.53,383.64 761.78,383.38 C767.85,383.16 771.48,381.19 772.38,377.63 C773.87,371.69 771.16,369.51 754.09,362.96 C746.01,359.86 741.55,355.77 740.01,350.05 C737.56,340.95 741.04,332.46 749.04,328.02 C755.56,324.40 766.41,324.53 773.73,328.31 C779.33,331.21 783.42,337.06 782.81,341.33 C782.54,343.20 781.76,343.54 777.25,343.80 C773.04,344.04 772.00,343.80 772.00,342.55 C772.00,341.70 771.55,341.00 771.00,341.00 C770.45,341.00 770.00,340.38 770.00,339.62 C770.00,337.41 763.76,335.51 757.75,335.89 C752.40,336.23 750.04,344.86 754.25,348.71 C757.32,351.52 762.85,354.21 764.03,353.48 C764.56,353.15 765.00,353.28 765.00,353.76 C765.00,354.24 767.51,355.67 770.57,356.94 C773.64,358.21 777.41,360.32 778.96,361.62 C788.49,369.64 785.50,387.06 773.66,392.58 C767.99,395.22 757.20,395.80 751.50,393.78 ZM 514.22 392.42 C508.01,389.33 504.78,385.71 502.49,379.29 C501.55,376.66 500.53,373.83 500.23,373.00 C499.93,372.17 499.76,366.69 499.86,360.81 C500.24,336.71 507.75,326.99 527.75,324.68 C530.09,324.41 532.00,324.60 532.00,325.10 C532.00,325.59 532.92,326.00 534.04,326.00 C539.76,326.00 548.74,333.66 550.99,340.46 C552.76,345.84 551.89,347.00 546.06,347.00 C541.54,347.00 540.90,346.72 539.55,344.09 C536.97,339.10 533.37,337.00 527.40,337.00 C522.89,337.00 521.54,337.47 518.61,340.04 C514.49,343.66 512.99,349.20 513.01,360.80 C513.03,372.56 513.84,375.75 517.91,380.02 C521.36,383.66 521.76,383.81 527.31,383.55 C532.09,383.33 533.61,382.79 536.04,380.47 C537.65,378.92 539.24,376.83 539.56,375.82 C540.03,374.33 541.20,374.00 546.07,374.00 C553.05,374.00 553.25,374.49 549.49,382.43 C545.36,391.16 538.17,395.00 525.95,395.00 C520.91,395.00 518.20,394.40 514.22,392.42 ZM 447.00 327.00 L 489.00 327.00 L 489.00 337.00 L 476.25 337.01 C465.37,337.03 461.34,336.90 459.86,338.78 C458.89,340.01 459.00,342.09 459.00,345.62 C459.00,351.98 459.24,353.00 460.75,353.02 C462.25,353.03 462.28,353.17 461.00,354.00 C459.99,354.66 463.47,354.97 471.75,354.98 L 484.00 355.00 L 484.00 364.00 L 459.27 364.00 L 459.09 372.30 C458.96,377.94 458.68,380.87 460.00,382.39 C461.62,384.24 465.61,384.00 475.16,384.00 L 490.11 384.00 L 489.80 388.75 L 489.50 393.50 L 468.25 393.77 L 447.00 394.04 L 447.00 327.00 ZM 851.00 327.00 L 892.00 327.00 L 892.00 337.00 L 880.62 337.00 C874.37,337.00 867.84,337.28 866.12,337.62 L 863.00 338.25 L 863.00 345.62 C863.00,350.15 863.41,353.00 864.06,353.00 C864.64,353.00 864.84,353.45 864.50,354.00 C864.10,354.65 868.16,355.00 875.94,355.00 L 888.00 355.00 L 888.00 363.94 L 862.50 364.50 L 862.21 373.42 C862.00,379.87 862.27,382.56 863.21,383.15 C863.92,383.60 870.94,383.98 878.80,383.98 L 893.11 384.00 L 892.80 388.75 L 892.50 393.50 L 851.00 394.04 L 851.00 327.00 ZM 795.00 431.90 L 800.75 432.20 L 806.49 432.50 L 811.59 441.50 C814.40,446.45 819.31,455.20 822.52,460.95 C827.21,469.37 828.48,471.02 829.07,469.45 C829.48,468.38 829.59,466.38 829.32,465.00 C828.94,463.03 829.06,462.82 829.90,464.00 C830.68,465.09 830.97,460.88 830.98,448.75 L 831.00 432.00 L 840.03 432.00 L 839.77 460.75 L 839.50 489.50 L 834.36 489.80 L 829.22 490.10 L 818.48 472.30 C812.57,462.51 807.57,454.31 807.37,454.08 C806.04,452.59 805.44,457.23 805.00,472.33 L 804.50 489.50 L 799.75 489.80 L 795.00 490.11 L 795.00 431.90 ZM 552.00 489.27 C552.00,488.82 553.08,485.08 554.40,480.97 C555.71,476.86 559.78,464.14 563.44,452.71 L 570.09 431.91 L 584.36 432.50 L 587.16 441.00 C596.58,469.59 602.05,488.35 601.21,489.19 C600.69,489.71 598.34,489.99 595.99,489.81 C591.78,489.51 591.67,489.41 590.25,484.50 C589.45,481.75 588.28,479.17 587.65,478.77 C585.56,477.43 565.97,477.86 565.61,479.25 C565.43,479.94 564.62,482.52 563.81,485.00 C562.33,489.49 562.32,489.50 557.16,489.80 C554.32,489.97 552.00,489.73 552.00,489.27 ZM 694.71 489.38 C694.32,488.99 694.00,475.92 694.00,460.33 L 694.00 432.00 L 704.94 432.00 L 705.22 444.25 L 705.50 456.50 L 727.50 456.50 L 728.06 431.90 L 738.50 432.50 L 738.50 489.50 L 733.25 489.80 L 728.00 490.10 L 728.00 465.93 L 705.50 466.50 L 704.50 489.50 L 699.96 489.80 C697.47,489.96 695.10,489.77 694.71,489.38 ZM 450.00 432.00 L 460.94 432.00 L 461.22 444.25 L 461.50 456.50 L 471.79 456.79 C479.77,457.01 482.40,456.74 483.54,455.61 C484.65,454.50 485.00,451.46 485.00,443.07 L 485.00 432.00 L 495.03 432.00 L 494.77 460.75 L 494.50 489.50 L 489.75 489.80 L 485.00 490.11 L 485.00 478.66 C485.00,469.15 484.73,467.11 483.42,466.61 C482.55,466.27 477.16,466.00 471.45,466.00 L 461.06 466.00 L 460.50 489.50 L 455.25 489.80 L 450.00 490.10 L 450.00 432.00 ZM 699.70 393.30 C699.43,392.86 699.08,387.10 698.92,380.50 L 698.63 368.50 L 688.31 348.31 C682.64,337.20 678.00,327.86 678.00,327.56 C678.00,327.25 680.93,327.00 684.50,327.00 L 691.01 327.00 L 697.74 340.50 C701.44,347.92 704.70,353.99 704.98,353.98 C706.65,353.94 708.42,351.16 714.38,339.25 L 721.01 326.00 L 727.01 326.00 C730.81,326.00 733.00,326.41 733.00,327.13 C733.00,327.76 728.42,337.32 722.81,348.38 L 712.63 368.50 L 712.06 381.00 L 711.50 393.50 L 705.84 393.80 C702.72,393.96 699.96,393.74 699.70,393.30 ZM 909.00 432.00 L 945.10 432.00 L 944.64 442.00 L 919.00 442.00 L 919.00 447.92 C919.00,452.17 918.93,454.44 920.02,455.64 C921.33,457.08 924.31,457.00 931.11,457.00 L 942.00 457.00 L 942.00 466.00 L 918.91 466.00 L 919.50 480.50 L 932.31 480.78 L 945.11 481.06 L 944.81 485.28 L 944.50 489.50 L 909.00 490.05 L 909.00 432.00 ZM 509.00 432.00 L 544.00 432.00 L 544.00 442.00 L 518.91 442.00 L 519.50 456.50 L 530.25 456.78 L 541.00 457.07 L 541.00 466.00 L 519.00 466.00 L 519.00 472.89 C519.00,478.26 519.35,479.92 520.58,480.39 C521.45,480.73 527.08,481.00 533.08,481.00 L 544.00 481.00 L 544.00 489.00 L 509.00 489.00 L 509.00 432.00 ZM 954.00 488.89 C954.00,488.28 956.87,482.77 960.37,476.64 C967.09,464.89 969.42,461.49 968.95,458.53 C968.66,456.74 967.33,455.11 965.33,451.88 C962.80,447.82 959.00,441.69 956.88,438.25 L 953.02 432.00 L 965.62 432.00 L 970.36 440.50 C972.96,445.17 975.63,449.00 976.29,448.99 C976.96,448.99 979.53,445.17 982.00,440.50 C986.64,431.74 986.86,431.59 993.10,432.62 L 996.70 433.21 L 989.18 446.22 C983.27,456.47 981.89,459.58 982.70,460.87 C995.23,480.55 999.87,488.40 999.43,489.12 C999.13,489.60 996.48,490.00 993.55,490.00 L 988.22 490.00 L 982.36 480.04 C979.14,474.57 976.05,470.21 975.50,470.36 C974.95,470.51 972.10,474.99 969.16,480.32 L 963.81 490.00 L 958.91 490.00 C955.98,490.00 954.00,489.55 954.00,488.89 ZM 810.00 338.09 L 806.75 337.54 C804.96,337.24 801.03,336.89 798.00,336.75 L 792.50 336.50 L 792.20 331.75 L 791.89 327.00 L 840.11 327.00 L 839.80 331.75 L 839.50 336.50 L 833.50 336.76 C830.20,336.90 826.49,337.24 825.27,337.52 L 823.03 338.03 L 822.77 365.77 L 822.50 393.50 L 816.25 393.80 L 810.00 394.10 L 810.00 338.09 ZM 593.08 384.00 C595.24,384.00 601.11,378.73 602.99,375.10 C604.34,372.50 605.06,351.15 603.82,350.39 C603.42,350.14 603.33,349.32 603.62,348.56 C604.35,346.64 601.56,341.59 598.39,339.09 C596.33,337.47 594.31,337.00 589.41,337.00 C583.81,337.00 582.78,337.32 580.46,339.75 C576.78,343.62 575.93,346.30 575.29,356.08 C574.45,368.87 575.53,375.40 579.18,379.55 C582.14,382.92 587.18,385.22 589.83,384.41 C590.56,384.18 592.03,384.00 593.08,384.00 ZM 659.00 442.00 L 644.00 442.00 L 644.00 432.00 L 685.10 432.00 L 684.64 442.00 L 670.04 442.00 L 669.77 465.75 L 669.50 489.50 L 664.25 489.80 L 659.00 490.10 L 659.00 442.00 ZM 611.00 432.00 L 621.96 432.00 L 622.23 456.25 L 622.50 480.50 L 634.81 480.78 L 647.11 481.06 L 646.81 485.28 L 646.50 489.50 L 611.00 490.05 L 611.00 432.00 ZM 879.38 478.49 C882.80,476.25 886.32,471.33 885.48,469.96 C885.12,469.39 885.38,468.25 886.05,467.44 C887.71,465.44 886.76,452.10 884.88,450.90 C884.12,450.42 883.85,450.02 884.29,450.02 C885.91,449.98 882.75,445.82 879.69,443.95 C877.43,442.58 874.67,442.01 870.25,442.00 L 864.00 442.00 L 864.00 460.92 C864.00,475.12 864.31,479.96 865.25,480.33 C867.82,481.35 876.80,480.18 879.38,478.49 ZM 772.00 432.00 L 781.50 432.00 L 781.13 489.50 L 776.56 489.80 L 772.00 490.11 L 772.00 432.00 ZM 584.35 467.24 C585.13,465.98 577.69,443.94 576.61,444.30 C575.65,444.62 569.06,464.10 569.02,466.75 C569.00,468.14 583.51,468.61 584.35,467.24 Z"/>
<path fill="rgba(68,125,52,1)" d="M 214.00 319.38 L 214.00 321.71 C214.00,326.36 216.93,354.72 218.16,362.00 C219.81,371.76 222.17,375.38 235.42,388.50 C250.19,403.13 254.09,409.57 254.76,420.45 C255.12,426.35 254.76,428.64 252.52,434.50 C244.80,454.70 242.80,462.90 241.54,479.50 C241.21,483.90 240.51,490.65 239.99,494.50 C239.48,498.35 238.81,503.52 238.51,506.00 C238.21,508.48 237.48,513.57 236.88,517.31 C236.29,521.06 236.03,524.99 236.31,526.06 C236.58,527.13 236.47,528.00 236.04,528.00 C235.62,528.00 232.62,530.53 229.38,533.62 C226.15,536.71 223.81,538.92 224.18,538.52 C225.43,537.21 219.04,528.29 214.89,525.54 C212.63,524.05 205.77,521.26 199.64,519.35 C180.76,513.44 179.03,512.37 171.14,501.70 C162.25,489.66 156.98,485.80 143.25,481.31 C130.61,477.17 128.69,476.24 120.89,470.50 C110.96,463.19 101.16,461.33 86.00,463.89 C82.43,464.49 73.60,464.99 66.38,464.99 L 53.29 465.00 C53.76,461.79 54.30,458.57 54.92,455.34 C56.63,446.44 63.78,425.81 68.54,416.03 C89.59,372.78 128.64,340.10 176.00,326.09 C189.51,322.09 200.88,320.01 214.00,319.38 ZM 51.44 503.53 C52.12,514.08 53.70,524.95 56.11,535.30 C62.24,561.55 76.13,588.00 94.26,609.11 C90.57,604.85 87.07,600.37 83.75,595.69 C64.06,567.90 53.22,536.83 51.44,503.53 ZM 113.70 628.25 C114.63,629.02 115.56,629.77 116.50,630.50 C123.20,635.73 129.79,640.30 136.50,644.32 C128.42,639.57 120.82,634.21 113.70,628.25 Z"/>
<path fill="rgba(145,181,181,1)" d="M 217.88 669.99 C216.99,669.47 212.72,668.88 208.38,668.67 C204.05,668.46 199.82,668.05 199.00,667.75 C198.18,667.46 192.55,665.98 186.50,664.47 C185.32,664.18 184.16,663.88 183.01,663.58 C183.59,662.62 185.02,659.92 186.60,656.75 C188.60,652.76 192.60,645.66 195.49,640.96 C202.98,628.80 205.66,623.19 207.97,614.86 C210.99,603.96 210.65,597.58 206.38,585.21 C200.51,568.21 202.09,562.27 216.54,547.01 L 225.02 538.07 L 224.90 537.87 C225.80,537.03 227.43,535.48 229.38,533.62 C232.62,530.53 235.62,528.00 236.04,528.00 C236.33,528.00 236.48,527.59 236.45,527.00 C236.46,527.00 236.47,527.00 236.48,527.00 C236.75,527.00 239.11,525.71 241.73,524.13 C244.36,522.55 248.71,520.73 251.40,520.08 C262.24,517.46 266.97,512.87 274.15,498.00 C279.30,487.36 283.37,481.94 288.12,479.46 C292.21,477.31 303.39,475.16 316.39,474.00 C329.59,472.83 335.89,471.64 339.85,469.56 C343.50,467.64 349.08,461.56 353.20,455.00 C356.83,449.22 362.16,443.98 366.76,441.66 C371.83,439.10 391.20,433.31 393.14,433.77 C393.38,433.83 393.17,432.77 392.67,431.18 C395.16,437.86 397.18,444.29 398.77,450.73 C397.44,445.60 396.16,442.00 395.50,442.00 C392.38,442.00 378.60,446.16 373.85,448.54 C367.13,451.90 364.15,454.65 357.38,463.75 C354.42,467.73 350.12,472.35 347.84,474.00 C342.78,477.67 330.80,481.57 322.00,482.42 C310.23,483.57 296.75,486.03 293.31,487.66 C289.16,489.63 284.39,495.25 282.87,499.97 C280.99,505.78 278.25,510.62 273.56,516.37 C269.47,521.39 269.26,521.92 270.82,523.28 C273.91,525.99 278.43,527.78 288.85,530.41 C303.76,534.18 306.24,535.76 314.93,546.98 C326.04,561.35 332.32,565.81 349.50,571.53 C360.17,575.08 369.56,580.50 374.40,585.88 C376.94,588.70 377.63,588.00 383.79,576.22 C389.19,565.89 393.58,554.93 396.88,543.63 C390.36,566.45 379.36,587.67 364.48,605.50 C360.81,609.90 357.39,614.29 356.87,615.25 C356.35,616.21 355.34,617.00 354.61,617.00 C353.89,617.00 351.02,619.36 348.25,622.25 C342.66,628.07 334.45,635.28 332.72,635.90 C332.10,636.12 328.65,638.29 325.05,640.73 C321.45,643.17 312.65,648.02 305.50,651.51 C284.24,661.89 263.79,667.58 243.72,668.70 C237.78,669.03 232.69,669.69 232.41,670.15 C231.69,671.30 219.90,671.17 217.88,669.99 ZM 157.59 655.02 C143.11,648.93 130.01,641.05 116.50,630.50 C106.17,622.44 96.56,612.55 88.09,601.51 C106.20,624.64 130.13,643.31 157.59,655.02 ZM 285.19 328.36 C296.65,332.17 307.68,337.23 318.65,343.65 C315.54,341.85 312.36,340.13 309.12,338.50 C300.93,334.40 293.08,331.05 285.19,328.36 ZM 403.52 483.58 C403.58,484.71 403.64,485.85 403.68,487.00 C403.85,491.16 403.87,495.31 403.74,499.44 C403.82,494.34 403.74,488.83 403.52,483.58 ZM 210.86 523.50 C212.64,524.29 214.07,525.00 214.89,525.54 C215.57,525.99 216.31,526.61 217.06,527.33 C215.38,525.93 213.37,524.69 210.86,523.50 ZM 236.80 517.83 C236.83,517.66 236.85,517.48 236.88,517.31 C237.48,513.57 238.21,508.48 238.51,506.00 C238.52,505.89 238.54,505.77 238.55,505.65 C238.54,505.77 238.52,505.89 238.51,506.00 C238.18,509.02 237.48,513.95 236.95,516.93 C236.90,517.23 236.85,517.53 236.80,517.83 ZM 330.05 350.83 C338.94,356.88 347.18,363.73 354.66,371.26 C347.19,363.77 338.97,356.93 330.05,350.83 ZM 240.03 494.21 C240.49,490.73 241.08,485.15 241.43,480.94 C241.07,485.37 240.48,491.06 240.03,494.21 ZM 222.33 533.68 C222.67,534.20 222.98,534.71 223.25,535.19 L 222.33 533.68 Z"/>
<path fill="rgba(161,185,93,1)" d="M 170.74 660.00 C113.85,641.09 69.56,592.91 56.11,535.30 C51.29,514.64 49.82,491.87 52.13,473.82 L 53.26 465.00 L 66.38 464.99 C73.60,464.99 82.43,464.49 86.00,463.89 C101.16,461.33 110.96,463.19 120.89,470.50 C128.69,476.24 130.61,477.17 143.25,481.31 C156.98,485.80 162.25,489.66 171.14,501.70 C179.03,512.37 180.76,513.44 199.64,519.35 C212.95,523.51 217.97,526.61 222.00,533.16 L 225.02 538.07 L 216.54 547.01 C202.09,562.27 200.51,568.21 206.38,585.21 C210.65,597.58 210.99,603.96 207.97,614.86 C205.66,623.19 202.98,628.80 195.49,640.96 C192.60,645.66 188.60,652.76 186.60,656.75 C184.61,660.74 182.87,663.98 182.74,663.96 C182.61,663.93 177.21,662.15 170.74,660.00 Z"/>
<path fill="rgba(178,101,54,1)" d="M 374.40 585.88 C369.56,580.50 360.17,575.08 349.50,571.53 C332.32,565.81 326.04,561.35 314.93,546.98 C306.24,535.76 303.76,534.18 288.85,530.41 C278.43,527.78 273.91,525.99 270.82,523.28 C269.26,521.92 269.47,521.39 273.56,516.37 C278.25,510.62 280.99,505.78 282.87,499.97 C284.39,495.25 289.16,489.63 293.31,487.66 C296.75,486.03 310.23,483.57 322.00,482.42 C330.80,481.57 342.78,477.67 347.84,474.00 C350.12,472.35 354.42,467.73 357.38,463.75 C364.15,454.65 367.13,451.90 373.85,448.54 C378.60,446.16 392.38,442.00 395.50,442.00 C396.72,442.00 400.09,454.46 402.00,466.00 C403.81,476.96 404.35,500.62 403.07,512.50 C400.67,534.71 394.05,556.59 383.79,576.22 C377.63,588.00 376.94,588.70 374.40,585.88 ZM 236.00 524.68 C236.00,523.41 236.43,519.92 236.95,516.93 C237.48,513.95 238.18,509.02 238.51,506.00 C238.85,502.98 239.51,497.80 239.99,494.50 C240.47,491.20 241.15,484.67 241.50,480.00 C242.77,462.97 244.73,454.88 252.52,434.50 C254.76,428.64 255.12,426.35 254.76,420.45 C254.09,409.57 250.19,403.13 235.42,388.50 C222.17,375.38 219.81,371.76 218.16,362.00 C216.93,354.72 214.00,326.36 214.00,321.71 L 214.00 318.69 L 231.75 319.30 C261.65,320.32 283.81,325.82 309.12,338.50 C347.89,357.94 377.00,389.71 391.80,428.71 C392.89,431.58 393.49,433.86 393.14,433.77 C391.20,433.31 371.83,439.10 366.76,441.66 C362.16,443.98 356.83,449.22 353.20,455.00 C349.08,461.56 343.50,467.64 339.85,469.56 C335.89,471.64 329.59,472.83 316.39,474.00 C303.39,475.16 292.21,477.31 288.12,479.46 C283.37,481.94 279.30,487.36 274.15,498.00 C266.97,512.87 262.24,517.46 251.40,520.08 C248.71,520.73 244.36,522.55 241.73,524.13 C239.11,525.71 236.75,527.00 236.48,527.00 C236.22,527.00 236.00,525.96 236.00,524.68 Z"/>
</g>
</svg>