<svg xmlns="http://www.w3.org/2000/svg" width="1024" height="1024" viewBox="0 0 1024 1024">
<g>
<path d="M 502.87 84.51 C522.17,84.19 541.96,84.49 554.78,85.64 C575.49,87.49 607.90,92.83 611.85,95.03 C612.64,95.47 618.71,97.23 625.53,99.10 C618.93,97.34 613.04,95.71 612.00,95.29 C611.17,94.96 609.15,94.62 607.50,94.53 C601.81,94.23 584.50,90.79 584.16,89.89 C583.98,89.39 583.46,89.21 583.02,89.49 C581.97,90.14 552.03,86.76 552.48,86.05 C552.66,85.75 549.14,85.60 544.66,85.72 C540.17,85.85 537.28,85.62 538.23,85.22 C539.19,84.81 526.74,84.49 510.58,84.49 C507.91,84.49 505.33,84.50 502.87,84.51 ZM 446.55 88.45 C451.41,87.01 464.97,85.85 481.39,85.14 C479.15,86.10 449.14,89.21 448.05,88.53 C447.73,88.34 447.16,88.32 446.55,88.45 ZM 88.30 578.74 C87.19,574.73 86.13,565.11 85.58,553.80 C85.81,556.68 86.10,558.44 86.37,558.27 C86.84,557.98 87.06,559.56 86.85,561.78 C86.64,564.01 86.76,565.65 87.13,565.42 C88.06,564.85 89.35,576.63 88.51,577.99 C88.38,578.20 88.31,578.46 88.30,578.74 ZM 474.22 940.90 C466.58,940.22 458.68,939.25 450.65,938.02 C458.66,939.17 464.99,939.67 468.40,939.27 C471.82,938.88 473.10,939.04 472.62,939.80 C472.33,940.28 472.95,940.65 474.49,940.92 C474.40,940.91 474.31,940.91 474.22,940.90 ZM 549.50 940.98 C540.97,941.69 519.92,941.95 501.72,941.77 C520.16,941.86 542.35,941.57 549.50,940.98 ZM 383.56 922.46 C376.37,920.22 369.32,917.83 362.50,915.30 C361.29,914.85 360.05,914.38 358.80,913.90 C366.40,916.75 375.44,919.89 383.56,922.46 ZM 85.05 541.30 C84.74,535.87 84.35,531.90 84.04,531.51 C83.54,530.87 83.69,518.04 84.15,503.71 C83.69,518.05 83.55,530.89 84.07,531.54 C84.43,531.99 84.82,536.05 85.05,541.30 ZM 423.89 933.06 C419.03,932.01 414.16,930.88 409.31,929.67 C414.19,930.88 419.09,932.02 423.89,933.06 Z" fill="rgba(0,0,0,1)"/>
<path d="M 477.72 941.26 C473.86,941.02 472.17,940.54 472.62,939.80 C473.10,939.04 471.82,938.88 468.40,939.27 C457.64,940.52 417.86,932.88 388.00,923.84 C373.21,919.36 353.44,912.22 345.31,908.42 C342.46,907.09 339.76,906.00 339.31,905.99 C338.87,905.99 331.52,902.50 322.99,898.24 C300.20,886.86 286.31,878.32 255.85,856.93 C254.73,856.14 252.62,854.45 251.16,853.17 C249.70,851.89 246.93,849.80 245.00,848.52 C243.07,847.25 239.48,844.36 237.00,842.11 C234.52,839.85 230.25,836.02 227.50,833.60 C217.11,824.43 188.00,794.60 188.00,793.12 C188.00,792.63 186.88,791.49 185.50,790.59 C184.12,789.69 183.00,788.37 183.00,787.66 C183.00,786.96 181.61,785.35 179.92,784.10 C178.23,782.85 177.07,781.60 177.34,781.33 C177.61,781.06 176.97,779.86 175.92,778.67 C171.91,774.13 171.00,772.98 171.00,772.42 C171.00,772.11 169.65,770.49 167.99,768.84 C166.34,767.19 165.19,765.50 165.44,765.10 C165.69,764.69 164.68,763.06 163.20,761.46 C161.71,759.86 160.50,758.18 160.50,757.74 C160.50,757.29 160.05,756.61 159.50,756.21 C158.95,755.82 157.86,754.27 157.09,752.77 C156.31,751.26 154.74,749.02 153.59,747.79 C152.44,746.56 151.73,745.44 152.00,745.31 C152.27,745.17 151.82,744.26 151.00,743.28 C150.18,742.30 148.95,740.26 148.27,738.75 C147.60,737.24 146.56,736.00 145.96,736.00 C145.37,736.00 145.16,735.55 145.50,735.00 C145.84,734.45 145.64,734.00 145.06,734.00 C144.48,734.00 144.00,733.40 144.00,732.66 C144.00,731.92 142.90,730.03 141.56,728.47 C140.21,726.90 139.34,725.26 139.62,724.81 C139.89,724.37 139.57,724.00 138.89,724.00 C138.22,724.00 137.95,723.72 138.30,723.37 C138.98,722.68 134.26,713.96 132.55,712.77 C131.97,712.36 131.84,712.02 132.26,712.02 C133.01,712.00 125.35,695.98 124.12,695.00 C123.78,694.72 123.41,694.05 123.30,693.50 C123.20,692.95 119.98,685.04 116.15,675.92 C106.09,651.95 95.40,617.01 92.48,598.50 C92.13,596.30 91.60,593.83 91.30,593.00 C91.00,592.17 90.56,589.26 90.31,586.52 C90.06,583.78 89.40,580.99 88.84,580.31 C88.29,579.64 88.13,578.59 88.51,577.99 C89.35,576.63 88.06,564.85 87.13,565.42 C86.76,565.65 86.64,564.01 86.85,561.78 C87.06,559.56 86.84,557.98 86.37,558.27 C85.89,558.56 85.36,552.90 85.19,545.69 C85.03,538.47 84.52,532.11 84.07,531.54 C83.08,530.28 84.50,483.91 86.01,468.50 C94.25,383.99 128.35,301.68 181.21,238.70 C185.77,233.27 190.18,227.84 191.00,226.64 C193.88,222.44 226.60,191.37 239.10,180.98 C264.00,160.27 289.83,143.44 319.00,128.95 C328.62,124.16 338.19,119.65 340.25,118.92 C342.31,118.19 344.00,117.24 344.00,116.80 C344.00,116.36 344.79,116.00 345.76,116.00 C346.72,116.00 351.55,114.42 356.48,112.48 C378.77,103.73 406.61,96.05 430.50,92.06 C437.65,90.87 444.31,89.45 445.29,88.91 C446.28,88.37 447.52,88.20 448.05,88.53 C449.19,89.24 481.99,85.80 481.52,85.03 C481.34,84.74 494.42,84.50 510.58,84.49 C526.74,84.49 539.19,84.81 538.23,85.22 C537.28,85.62 540.17,85.85 544.66,85.72 C549.14,85.60 552.66,85.75 552.48,86.05 C552.03,86.76 581.97,90.14 583.02,89.49 C583.46,89.21 583.98,89.39 584.16,89.89 C584.50,90.79 601.81,94.23 607.50,94.53 C609.15,94.62 611.17,94.96 612.00,95.29 C614.46,96.29 644.38,104.15 646.00,104.23 C646.83,104.27 647.72,104.60 648.00,104.96 C648.80,106.01 670.37,113.47 671.75,113.18 C672.44,113.03 673.00,113.32 673.00,113.82 C673.00,114.32 675.14,115.53 677.75,116.51 C680.36,117.49 690.60,122.26 700.50,127.10 C725.35,139.25 731.44,142.71 752.00,156.45 C759.42,161.40 767.88,167.38 770.79,169.73 C773.70,172.08 776.41,174.00 776.82,174.00 C777.23,174.00 779.12,175.49 781.03,177.31 C782.94,179.13 786.30,181.90 788.50,183.48 C794.84,188.00 824.98,217.49 834.50,228.47 C837.25,231.65 840.23,234.97 841.13,235.87 C844.12,238.86 862.18,263.35 869.98,275.00 C883.71,295.51 897.76,321.61 907.46,344.60 C909.99,350.60 912.48,356.40 913.00,357.50 C913.52,358.60 916.41,366.92 919.43,376.00 C928.63,403.69 934.36,429.46 939.20,465.00 C940.97,477.99 940.95,540.23 939.18,557.00 C933.93,606.52 918.11,660.89 896.29,704.43 C887.36,722.22 881.43,732.41 869.46,750.50 C857.55,768.50 849.03,779.52 835.07,795.00 C830.36,800.22 825.58,805.62 824.46,807.00 C820.85,811.42 798.82,832.29 788.50,841.07 C778.89,849.24 766.81,858.50 753.00,868.26 C736.40,880.00 696.97,901.63 679.50,908.58 C675.65,910.12 672.05,911.68 671.50,912.05 C670.95,912.43 668.03,913.53 665.00,914.49 C661.97,915.46 659.07,916.64 658.55,917.12 C658.03,917.61 656.59,918.00 655.36,918.00 C654.13,918.00 652.87,918.40 652.57,918.88 C652.27,919.36 651.01,920.00 649.76,920.28 C648.52,920.57 644.35,921.78 640.50,922.97 C628.96,926.54 611.08,931.15 596.00,934.44 C586.09,936.60 562.90,939.86 549.50,940.98 C538.39,941.90 491.00,942.09 477.72,941.26 ZM 486.29 888.66 C486.58,889.12 498.21,889.34 512.15,889.14 C547.71,888.62 548.35,888.60 549.81,887.65 C550.54,887.18 552.64,887.09 554.49,887.43 C556.54,887.82 558.11,887.63 558.54,886.94 C558.96,886.26 560.53,886.06 562.54,886.44 C564.54,886.82 566.12,886.62 566.53,885.95 C566.91,885.34 568.27,885.10 569.55,885.42 C570.83,885.74 572.18,885.52 572.55,884.92 C572.92,884.33 574.27,884.10 575.55,884.42 C576.83,884.74 578.15,884.56 578.49,884.02 C578.82,883.48 580.09,883.04 581.30,883.05 C585.39,883.09 592.46,881.86 593.61,880.91 C594.23,880.39 595.48,880.25 596.37,880.59 C597.33,880.96 598.00,880.71 598.00,879.99 C598.00,879.26 598.80,878.98 600.00,879.29 C601.10,879.58 602.00,879.35 602.00,878.79 C602.00,878.23 602.90,878.00 604.00,878.29 C605.10,878.58 606.27,878.37 606.60,877.84 C606.93,877.30 607.83,877.11 608.60,877.40 C609.37,877.70 610.00,877.45 610.00,876.86 C610.00,876.27 610.66,876.04 611.47,876.35 C612.28,876.66 613.22,876.45 613.57,875.89 C613.92,875.32 614.78,875.08 615.48,875.35 C616.18,875.62 617.98,875.20 619.48,874.43 C620.98,873.65 622.61,873.26 623.10,873.56 C623.60,873.87 624.00,873.59 624.00,872.95 C624.00,872.31 624.67,872.05 625.50,872.36 C626.33,872.68 627.00,872.45 627.00,871.86 C627.00,871.27 627.67,871.05 628.50,871.36 C629.33,871.68 630.00,871.45 630.00,870.86 C630.00,870.27 630.67,870.05 631.50,870.36 C632.33,870.68 633.00,870.45 633.00,869.86 C633.00,869.27 633.67,869.05 634.50,869.36 C635.33,869.68 636.00,869.45 636.00,868.86 C636.00,868.27 636.67,868.05 637.50,868.36 C638.33,868.68 639.00,868.55 639.00,868.08 C639.00,867.29 643.12,865.69 645.50,865.56 C646.05,865.53 646.77,865.14 647.09,864.70 C647.41,864.26 648.65,863.83 649.84,863.74 C651.03,863.65 652.00,863.22 652.00,862.79 C652.00,862.35 653.12,862.00 654.50,862.00 C655.88,862.00 657.00,861.59 657.00,861.10 C657.00,860.60 658.35,859.73 660.00,859.15 C661.65,858.57 663.00,858.34 663.00,858.62 C663.00,858.91 663.71,858.43 664.58,857.57 C665.44,856.70 668.13,855.49 670.55,854.88 C672.97,854.27 675.97,852.89 677.21,851.81 C678.46,850.74 680.72,849.61 682.24,849.30 C683.76,849.00 685.00,848.36 685.00,847.88 C685.00,847.39 685.79,847.00 686.75,847.00 C687.71,847.00 689.80,845.88 691.39,844.51 C692.98,843.15 695.79,841.48 697.64,840.81 C699.49,840.15 701.00,839.24 701.00,838.80 C701.00,838.36 701.64,838.00 702.43,838.00 C703.21,838.00 704.47,837.38 705.23,836.63 C705.98,835.88 707.58,834.95 708.80,834.56 C710.01,834.18 711.00,833.45 711.00,832.93 C711.00,832.42 711.67,832.00 712.50,832.00 C713.33,832.00 714.00,831.60 714.00,831.11 C714.00,830.62 715.02,829.96 716.27,829.65 C717.52,829.33 719.52,828.16 720.73,827.04 C721.93,825.92 723.39,825.00 723.96,825.00 C724.53,825.00 725.00,824.55 725.00,824.00 C725.00,823.45 725.69,823.00 726.53,823.00 C727.37,823.00 728.32,822.33 728.64,821.50 C728.95,820.67 729.84,820.00 730.61,820.00 C731.37,820.00 732.00,819.55 732.00,819.00 C732.00,818.45 732.69,818.00 733.53,818.00 C734.37,818.00 735.32,817.33 735.64,816.50 C735.95,815.67 736.85,815.00 737.64,815.00 C738.42,815.00 739.32,814.33 739.64,813.50 C739.95,812.67 740.85,812.00 741.64,812.00 C742.42,812.00 743.32,811.33 743.64,810.50 C743.95,809.67 744.84,809.00 745.60,809.00 C746.36,809.00 747.55,808.10 748.23,807.00 C748.92,805.90 750.03,805.00 750.71,805.00 C751.38,805.00 752.41,804.10 753.00,803.00 C753.59,801.90 754.72,801.00 755.51,801.00 C756.31,801.00 757.69,799.88 758.59,798.50 C759.49,797.12 760.71,796.00 761.29,796.00 C762.48,796.00 765.34,793.32 782.80,775.82 C801.71,756.87 802.00,756.56 802.00,755.36 C802.00,754.74 803.12,753.49 804.50,752.59 C805.88,751.69 807.00,750.40 807.00,749.72 C807.00,749.04 807.94,747.89 809.10,747.17 C810.25,746.45 810.93,745.60 810.60,745.27 C810.28,744.95 810.91,744.05 812.01,743.28 C813.10,742.51 814.00,741.29 814.00,740.55 C814.00,739.82 814.67,738.95 815.50,738.64 C816.33,738.32 817.00,737.42 817.00,736.64 C817.00,735.85 817.74,734.93 818.64,734.58 C819.55,734.24 820.00,733.67 819.65,733.32 C819.30,732.97 819.92,732.05 821.02,731.27 C822.13,730.50 822.80,729.49 822.52,729.04 C822.24,728.58 822.75,727.93 823.65,727.58 C824.55,727.24 825.04,726.71 824.75,726.41 C824.45,726.12 825.28,724.72 826.59,723.31 C827.89,721.90 828.75,720.40 828.49,719.98 C828.23,719.56 828.71,718.94 829.57,718.61 C830.43,718.28 830.88,717.61 830.57,717.11 C830.26,716.62 830.71,715.94 831.57,715.61 C832.43,715.28 832.88,714.61 832.57,714.11 C832.26,713.62 832.71,712.94 833.57,712.61 C834.43,712.28 834.85,711.56 834.50,711.01 C834.16,710.45 834.43,710.00 835.11,710.00 C835.78,710.00 836.09,709.75 835.79,709.45 C835.49,709.15 837.47,705.21 840.19,700.70 C842.91,696.19 848.22,686.20 852.00,678.50 C870.93,639.85 882.69,600.18 889.19,553.00 C891.28,537.83 890.96,481.97 888.69,465.00 C885.46,440.88 880.49,418.70 874.03,399.60 C872.44,394.87 871.32,391.00 871.55,391.00 C872.07,391.00 867.63,379.05 866.12,376.40 C865.53,375.35 862.51,368.65 859.41,361.50 C843.24,324.17 821.60,290.46 793.94,259.50 C740.70,199.91 660.07,155.72 577.00,140.61 C540.81,134.02 495.03,133.24 458.50,138.57 C388.34,148.81 325.67,176.52 269.00,222.34 C257.64,231.53 231.98,257.07 221.13,270.00 C186.58,311.14 160.06,360.84 146.58,409.67 C141.25,428.99 140.51,433.07 142.14,434.11 C143.18,434.77 143.07,434.97 141.64,434.98 C140.42,434.99 139.98,435.50 140.35,436.47 C140.66,437.28 140.46,438.21 139.92,438.55 C139.37,438.89 139.18,439.99 139.50,441.00 C139.82,442.01 139.58,443.14 138.96,443.52 C138.34,443.91 138.10,445.27 138.42,446.55 C138.74,447.83 138.52,449.18 137.92,449.55 C137.33,449.92 137.10,451.27 137.42,452.55 C137.74,453.83 137.51,455.18 136.90,455.56 C136.28,455.95 136.05,457.48 136.37,459.08 C136.68,460.66 136.45,462.22 135.86,462.59 C135.21,462.99 135.03,464.77 135.39,467.07 C135.77,469.40 135.58,471.14 134.91,471.56 C134.21,471.99 134.05,473.82 134.45,476.53 C134.82,478.97 134.68,481.08 134.13,481.42 C132.36,482.51 132.19,542.38 133.95,543.47 C134.37,543.73 134.49,546.20 134.23,548.97 C133.93,552.07 134.14,554.00 134.78,554.00 C135.40,554.00 135.60,555.57 135.27,558.00 C134.93,560.58 135.13,562.00 135.84,562.00 C136.54,562.00 136.73,563.11 136.35,565.00 C136.02,566.65 136.14,568.00 136.62,568.00 C137.11,568.00 137.56,570.57 137.64,573.71 C137.71,576.85 138.26,579.59 138.85,579.78 C139.47,579.99 139.68,581.36 139.34,583.07 C139.00,584.73 139.18,586.00 139.74,586.00 C140.28,586.00 140.51,587.12 140.24,588.50 C139.98,589.88 140.23,591.00 140.79,591.00 C141.35,591.00 141.58,591.90 141.29,593.00 C141.00,594.10 141.16,595.00 141.63,595.00 C142.11,595.00 142.54,596.62 142.58,598.59 C142.62,600.56 143.07,602.47 143.58,602.84 C144.09,603.20 144.57,605.02 144.66,606.89 C144.75,608.75 145.20,610.55 145.66,610.89 C146.12,611.22 146.60,612.85 146.72,614.49 C146.84,616.14 147.38,617.63 147.92,617.80 C148.45,617.98 148.64,618.78 148.34,619.56 C148.03,620.35 148.27,621.00 148.86,621.00 C149.45,621.00 149.68,621.67 149.36,622.50 C149.05,623.33 149.27,624.00 149.86,624.00 C150.45,624.00 150.68,624.67 150.36,625.50 C150.05,626.33 150.27,627.00 150.86,627.00 C151.45,627.00 151.68,627.67 151.36,628.50 C151.05,629.33 151.27,630.00 151.86,630.00 C152.45,630.00 152.68,630.67 152.36,631.50 C152.05,632.33 152.27,633.00 152.86,633.00 C153.45,633.00 153.68,633.67 153.36,634.50 C153.05,635.33 153.27,636.00 153.86,636.00 C154.45,636.00 154.68,636.67 154.36,637.50 C154.05,638.33 154.27,639.00 154.86,639.00 C155.45,639.00 155.70,639.62 155.41,640.37 C155.12,641.13 155.51,642.37 156.27,643.13 C157.04,643.89 157.47,645.08 157.25,645.76 C157.02,646.44 157.35,647.00 157.98,647.00 C158.60,647.00 158.84,647.45 158.50,648.00 C158.16,648.55 158.32,649.00 158.85,649.00 C159.38,649.00 159.58,649.89 159.29,650.99 C158.97,652.23 159.36,653.20 160.32,653.57 C161.18,653.90 161.65,654.75 161.38,655.45 C161.11,656.16 161.56,657.42 162.39,658.25 C163.23,659.08 163.63,660.04 163.29,660.38 C162.95,660.72 163.22,661.00 163.89,661.00 C164.57,661.00 164.84,661.45 164.50,662.00 C164.16,662.55 164.39,663.00 165.00,663.00 C165.61,663.00 165.87,663.40 165.56,663.90 C165.26,664.39 165.68,666.08 166.50,667.65 C167.32,669.22 167.99,671.08 167.99,671.78 C168.00,672.49 168.67,673.32 169.49,673.64 C170.32,673.95 170.74,674.61 170.44,675.10 C170.13,675.60 170.39,676.00 171.00,676.00 C171.61,676.00 171.84,676.45 171.50,677.00 C171.16,677.55 171.39,678.00 172.00,678.00 C172.61,678.00 172.84,678.45 172.50,679.00 C172.16,679.55 172.43,680.00 173.11,680.00 C173.78,680.00 174.06,680.27 173.73,680.60 C172.93,681.40 176.94,689.00 178.16,689.00 C178.69,689.00 178.84,689.45 178.50,690.00 C178.16,690.55 178.34,691.00 178.91,691.00 C179.47,691.00 179.68,691.67 179.36,692.50 C179.05,693.33 179.28,694.00 179.89,694.00 C180.50,694.00 181.00,694.69 181.00,695.53 C181.00,696.37 181.67,697.32 182.49,697.64 C183.32,697.95 183.78,698.54 183.53,698.95 C183.28,699.36 183.97,700.67 185.07,701.85 C186.18,703.03 186.72,704.01 186.29,704.03 C185.86,704.05 186.30,704.52 187.27,705.09 C188.25,705.66 188.78,706.55 188.46,707.06 C188.14,707.58 188.36,708.00 188.94,708.00 C189.52,708.00 190.00,708.67 190.00,709.50 C190.00,710.33 190.48,711.00 191.06,711.00 C191.64,711.00 191.87,711.40 191.56,711.90 C191.26,712.39 191.71,713.06 192.57,713.39 C193.43,713.72 193.88,714.39 193.57,714.89 C193.26,715.38 193.68,716.05 194.49,716.36 C195.35,716.69 195.71,717.58 195.36,718.50 C195.03,719.37 195.15,719.95 195.63,719.79 C196.11,719.63 196.64,719.95 196.82,720.50 C197.00,721.05 197.79,721.87 198.59,722.31 C199.39,722.76 199.78,723.55 199.46,724.07 C199.14,724.59 199.58,725.28 200.44,725.61 C201.30,725.94 202.00,727.07 202.00,728.11 C202.00,729.15 202.56,729.89 203.25,729.75 C203.94,729.61 204.38,730.08 204.24,730.78 C204.10,731.48 204.66,732.32 205.49,732.63 C206.32,732.95 207.00,734.09 207.00,735.17 C207.00,736.24 207.45,736.84 208.01,736.50 C208.56,736.15 209.31,736.69 209.68,737.69 C210.05,738.68 210.95,739.86 211.67,740.30 C212.40,740.74 213.00,741.99 213.00,743.08 C213.00,744.20 213.98,745.46 215.25,745.97 C216.49,746.47 217.15,746.90 216.71,746.94 C215.44,747.04 217.95,751.00 219.29,751.00 C219.96,751.00 221.06,752.24 221.73,753.75 C222.40,755.27 223.92,756.95 225.11,757.50 C226.30,758.05 227.26,758.95 227.25,759.50 C227.20,761.18 231.05,766.00 232.45,766.00 C233.17,766.00 235.64,768.44 237.94,771.42 C240.24,774.40 245.24,779.44 249.06,782.62 C252.88,785.80 256.00,789.00 256.00,789.72 C256.00,790.45 258.14,792.40 260.75,794.06 C263.36,795.71 265.32,797.39 265.09,797.78 C264.87,798.18 266.33,799.32 268.34,800.33 C270.35,801.34 272.00,802.59 272.00,803.11 C272.00,803.63 273.15,804.49 274.56,805.02 C275.97,805.56 276.84,806.46 276.49,807.02 C276.14,807.58 277.18,808.59 278.79,809.27 C280.40,809.95 281.75,810.95 281.80,811.50 C281.84,812.05 282.84,812.72 284.00,813.00 C285.16,813.28 286.07,813.95 286.02,814.50 C285.97,815.05 286.85,815.64 287.98,815.82 C289.11,816.00 289.75,816.59 289.41,817.14 C289.08,817.69 289.74,818.38 290.90,818.68 C292.05,818.99 293.00,819.63 293.00,820.12 C293.00,820.60 293.90,821.00 295.00,821.00 C296.10,821.00 297.00,821.45 297.00,822.00 C297.00,822.55 297.70,823.00 298.56,823.00 C299.42,823.00 299.86,823.41 299.55,823.91 C298.87,825.02 305.98,829.60 307.75,829.20 C308.44,829.04 309.00,829.38 309.00,829.96 C309.00,830.53 309.51,831.00 310.13,831.00 C310.76,831.00 311.99,831.84 312.88,832.86 C313.77,833.88 315.51,835.03 316.75,835.42 C317.99,835.82 319.00,836.51 319.00,836.96 C319.00,837.41 320.12,838.07 321.50,838.41 C322.88,838.76 324.00,839.51 324.00,840.08 C324.00,840.65 324.45,840.84 325.00,840.50 C325.55,840.16 326.00,840.27 326.00,840.74 C326.00,841.21 327.58,842.17 329.50,842.86 C331.42,843.56 333.00,844.58 333.00,845.12 C333.00,845.67 333.45,845.84 334.00,845.50 C334.55,845.16 335.00,845.39 335.00,846.00 C335.00,846.61 335.45,846.84 336.00,846.50 C336.55,846.16 337.00,846.39 337.00,847.00 C337.00,847.61 337.45,847.84 338.00,847.50 C338.55,847.16 339.00,847.29 339.00,847.79 C339.00,848.79 346.99,852.65 348.23,852.25 C348.65,852.11 349.00,852.48 349.00,853.06 C349.00,853.64 349.45,853.84 350.00,853.50 C350.55,853.16 351.00,853.39 351.00,854.00 C351.00,854.61 351.45,854.84 352.00,854.50 C352.55,854.16 353.00,854.43 353.00,855.11 C353.00,855.78 353.28,856.05 353.63,855.70 C353.98,855.35 355.22,855.60 356.38,856.25 C357.55,856.90 358.84,857.33 359.25,857.21 C359.66,857.10 360.00,857.48 360.00,858.06 C360.00,858.64 360.45,858.84 361.00,858.50 C361.55,858.16 362.00,858.39 362.00,859.00 C362.00,859.61 362.42,859.86 362.93,859.54 C363.44,859.23 364.15,859.43 364.50,860.00 C364.85,860.57 365.56,860.77 366.07,860.46 C366.58,860.14 367.00,860.39 367.00,861.00 C367.00,861.61 367.42,861.86 367.93,861.54 C368.44,861.23 369.15,861.43 369.50,862.00 C369.85,862.57 370.56,862.77 371.07,862.46 C371.58,862.14 372.00,862.34 372.00,862.91 C372.00,863.47 372.67,863.68 373.50,863.36 C374.33,863.05 375.00,863.31 375.00,863.95 C375.00,864.59 375.45,864.84 376.00,864.50 C376.55,864.16 377.00,864.39 377.00,865.00 C377.00,865.61 377.42,865.86 377.93,865.54 C378.44,865.23 379.13,865.41 379.46,865.94 C379.79,866.47 380.72,866.66 381.53,866.35 C382.34,866.04 383.00,866.31 383.00,866.95 C383.00,867.59 383.45,867.84 384.00,867.50 C384.55,867.16 385.00,867.34 385.00,867.91 C385.00,868.47 385.67,868.68 386.50,868.36 C387.33,868.05 388.00,868.27 388.00,868.86 C388.00,869.45 388.67,869.68 389.50,869.36 C390.33,869.04 391.00,869.33 391.00,870.00 C391.00,870.67 391.67,870.96 392.50,870.64 C393.33,870.32 394.00,870.55 394.00,871.14 C394.00,871.73 394.67,871.95 395.50,871.64 C396.33,871.32 397.00,871.53 397.00,872.10 C397.00,872.68 397.88,872.86 399.00,872.50 C400.12,872.14 401.00,872.32 401.00,872.90 C401.00,873.47 401.67,873.68 402.50,873.36 C403.33,873.05 404.00,873.23 404.00,873.78 C404.00,874.74 410.56,876.57 412.41,876.12 C412.91,875.99 413.62,876.38 413.98,876.97 C414.35,877.57 416.08,878.15 417.82,878.28 C419.57,878.40 421.00,878.85 421.00,879.27 C421.00,879.69 422.12,879.76 423.50,879.41 C424.94,879.05 426.00,879.21 426.00,879.80 C426.00,880.36 426.90,880.58 428.00,880.29 C429.13,879.99 430.00,880.26 430.00,880.90 C430.00,881.61 430.93,881.80 432.50,881.41 C433.88,881.07 435.00,881.19 435.00,881.68 C435.00,882.58 437.24,882.98 442.25,882.97 C443.76,882.97 445.00,883.41 445.00,883.96 C445.00,884.53 446.28,884.69 448.00,884.35 C449.88,883.97 451.00,884.16 451.00,884.85 C451.00,885.54 452.12,885.73 454.00,885.35 C455.77,885.00 457.00,885.17 457.00,885.78 C457.00,886.81 460.49,887.18 469.25,887.07 C472.04,887.04 474.00,887.47 474.00,888.11 C474.00,888.85 475.89,888.98 479.89,888.51 C483.13,888.14 486.01,888.21 486.29,888.66 Z" fill="rgba(24,65,35,1)"/>
<path d="M 141.64 434.98 C143.07,434.97 143.18,434.77 142.14,434.11 C140.51,433.07 141.25,428.99 146.58,409.67 C160.06,360.84 186.58,311.14 221.13,270.00 C231.98,257.07 257.64,231.53 269.00,222.34 C325.67,176.52 388.34,148.81 458.50,138.57 C463.93,137.77 469.57,137.12 475.36,136.59 L 472.78 137.13 L 473.45 151.32 C474.42,172.06 476.85,200.96 478.64,212.96 C483.21,243.73 486.75,249.31 520.79,279.32 C546.14,301.67 558.30,320.01 561.07,340.07 C562.66,351.59 560.73,361.00 552.98,379.53 C537.13,417.45 533.92,431.99 530.04,483.60 C527.10,522.68 525.27,540.30 522.46,556.65 C518.00,582.56 518.58,580.99 511.39,586.45 C509.25,588.08 505.30,591.68 502.61,594.45 C499.92,597.23 498.02,598.97 498.38,598.32 C498.74,597.67 498.57,596.85 498.00,596.50 C497.43,596.15 497.23,595.44 497.54,594.93 C497.86,594.42 497.61,594.00 497.00,594.00 C496.39,594.00 496.13,593.60 496.44,593.10 C496.74,592.61 496.29,591.94 495.43,591.61 C494.57,591.28 494.15,590.56 494.50,590.01 C494.84,589.45 494.61,589.00 494.00,589.00 C493.39,589.00 493.15,588.57 493.47,588.05 C493.79,587.53 493.15,586.61 492.04,586.02 C490.93,585.43 490.10,584.62 490.21,584.22 C490.44,583.34 480.03,573.00 478.91,573.00 C478.46,573.00 477.74,572.44 477.30,571.75 C474.94,568.07 452.51,558.87 435.34,554.54 C427.75,552.63 412.00,546.13 412.00,544.90 C412.00,544.40 411.33,544.00 410.50,544.00 C409.67,544.00 409.00,543.55 409.00,543.00 C409.00,542.45 408.37,542.00 407.61,542.00 C406.84,542.00 405.95,541.33 405.64,540.50 C405.32,539.67 404.46,539.00 403.73,539.00 C402.11,539.00 394.73,531.61 395.54,530.80 C395.86,530.48 394.73,529.23 393.05,528.03 C391.36,526.83 390.21,525.47 390.50,525.00 C390.79,524.53 389.66,523.18 388.00,522.00 C386.34,520.82 385.22,519.45 385.52,518.97 C385.81,518.49 385.13,517.61 384.00,517.00 C382.87,516.39 382.19,515.51 382.48,515.03 C382.78,514.55 381.68,513.19 380.03,512.02 C378.38,510.85 377.14,509.58 377.26,509.19 C377.53,508.37 362.06,493.00 360.96,493.00 C360.55,493.00 359.95,492.33 359.64,491.50 C359.32,490.67 358.37,490.00 357.53,490.00 C356.69,490.00 356.00,489.60 356.00,489.11 C356.00,488.62 354.91,487.94 353.57,487.61 C352.23,487.27 350.55,486.41 349.82,485.69 C347.74,483.64 335.88,479.22 323.68,475.96 C311.90,472.81 300.00,468.31 300.00,467.00 C300.00,466.57 298.88,465.93 297.50,465.59 C296.12,465.24 295.00,464.52 295.00,463.98 C295.00,463.44 294.31,463.00 293.47,463.00 C292.63,463.00 291.68,462.33 291.36,461.50 C291.05,460.67 290.17,460.00 289.43,460.00 C288.68,460.00 287.59,459.10 287.00,458.00 C286.41,456.90 285.27,456.00 284.47,456.00 C283.67,456.00 282.45,455.10 281.77,454.00 C281.08,452.90 279.94,452.00 279.23,452.00 C278.52,452.00 277.68,451.33 277.36,450.50 C277.05,449.67 276.16,449.00 275.39,449.00 C274.63,449.00 274.00,448.55 274.00,448.00 C274.00,447.45 273.36,447.00 272.57,447.00 C271.79,447.00 270.55,446.43 269.82,445.73 C268.25,444.22 256.13,439.41 248.73,437.36 C239.12,434.70 222.05,434.50 207.44,436.88 C187.11,440.18 154.82,439.43 141.60,435.36 C141.22,435.24 140.93,435.17 140.70,435.15 C140.93,435.04 141.24,434.99 141.64,434.98 ZM 539.47 136.05 C524.78,135.50 502.37,135.33 488.50,135.65 C505.19,134.74 522.63,134.88 539.47,136.05 ZM 651.33 162.05 C624.04,151.32 595.35,143.51 565.66,138.78 C569.53,139.33 573.31,139.94 577.00,140.61 C602.24,145.20 627.24,152.47 651.33,162.05 ZM 859.41 361.50 C851.51,343.27 842.17,325.69 831.57,309.02 C842.21,325.71 851.47,343.17 859.41,361.50 ZM 792.78 258.21 C786.12,250.90 779.19,243.89 772.01,237.23 C779.31,243.98 786.25,250.98 792.78,258.21 Z" fill="rgba(61,119,63,1)"/>
<path d="M 486.29 888.66 C486.01,888.21 483.13,888.14 479.89,888.51 C475.89,888.98 474.00,888.85 474.00,888.11 C474.00,887.47 472.04,887.04 469.25,887.07 C460.49,887.18 457.00,886.81 457.00,885.78 C457.00,885.17 455.77,885.00 454.00,885.35 C452.12,885.73 451.00,885.54 451.00,884.85 C451.00,884.16 449.88,883.97 448.00,884.35 C446.28,884.69 445.00,884.53 445.00,883.96 C445.00,883.41 443.76,882.97 442.25,882.97 C437.24,882.98 435.00,882.58 435.00,881.68 C435.00,881.19 433.88,881.07 432.50,881.41 C430.93,881.80 430.00,881.61 430.00,880.90 C430.00,880.26 429.13,879.99 428.00,880.29 C426.90,880.58 426.00,880.36 426.00,879.80 C426.00,879.21 424.94,879.05 423.50,879.41 C422.12,879.76 421.00,879.69 421.00,879.27 C421.00,879.04 420.57,878.80 419.89,878.61 C420.23,878.46 420.62,878.24 421.00,878.00 C422.26,877.18 422.21,877.03 420.64,877.02 C418.06,876.99 418.46,876.25 429.70,860.44 C455.91,823.59 465.92,807.75 474.99,788.74 C484.95,767.88 489.00,752.29 489.00,734.87 C489.00,721.55 487.00,712.63 480.21,695.69 C474.69,681.93 474.52,681.21 474.51,672.00 C474.50,664.27 474.92,661.60 476.73,657.67 C480.39,649.73 491.43,636.58 510.50,617.42 C536.24,591.55 545.02,585.44 569.91,576.06 C577.28,573.29 584.79,570.14 586.59,569.08 L 589.87 567.15 L 598.69 571.61 C605.57,575.09 611.95,577.17 627.51,581.00 C650.72,586.70 657.25,589.09 666.65,595.30 C675.95,601.44 681.65,606.97 696.27,624.00 C722.41,654.46 732.48,661.33 764.50,670.54 C784.12,676.18 794.95,681.36 810.36,692.47 C824.27,702.50 834.79,708.62 835.99,707.38 C836.41,706.95 837.24,705.69 838.34,703.87 C836.63,706.92 835.56,709.23 835.79,709.45 C836.09,709.75 835.78,710.00 835.11,710.00 C834.43,710.00 834.16,710.45 834.50,711.01 C834.85,711.56 834.43,712.28 833.57,712.61 C832.71,712.94 832.26,713.62 832.57,714.11 C832.88,714.61 832.43,715.28 831.57,715.61 C830.71,715.94 830.26,716.62 830.57,717.11 C830.88,717.61 830.43,718.28 829.57,718.61 C828.71,718.94 828.23,719.56 828.49,719.98 C828.75,720.40 827.89,721.90 826.59,723.31 C825.28,724.72 824.45,726.12 824.75,726.41 C825.04,726.71 824.55,727.24 823.65,727.58 C822.75,727.93 822.24,728.58 822.52,729.04 C822.80,729.49 822.13,730.50 821.02,731.27 C819.92,732.05 819.30,732.97 819.65,733.32 C820.00,733.67 819.55,734.24 818.64,734.58 C817.74,734.93 817.00,735.85 817.00,736.64 C817.00,737.42 816.33,738.32 815.50,738.64 C814.67,738.95 814.00,739.82 814.00,740.55 C814.00,741.29 813.10,742.51 812.01,743.28 C810.91,744.05 810.28,744.95 810.60,745.27 C810.93,745.60 810.25,746.45 809.10,747.17 C807.94,747.89 807.00,749.04 807.00,749.72 C807.00,750.40 805.88,751.69 804.50,752.59 C803.12,753.49 802.00,754.74 802.00,755.36 C802.00,756.56 801.71,756.87 782.80,775.82 C765.34,793.32 762.48,796.00 761.29,796.00 C760.71,796.00 759.49,797.12 758.59,798.50 C757.69,799.88 756.31,801.00 755.51,801.00 C754.72,801.00 753.59,801.90 753.00,803.00 C752.41,804.10 751.38,805.00 750.71,805.00 C750.03,805.00 748.92,805.90 748.23,807.00 C747.55,808.10 746.36,809.00 745.60,809.00 C744.84,809.00 743.95,809.67 743.64,810.50 C743.32,811.33 742.42,812.00 741.64,812.00 C740.85,812.00 739.95,812.67 739.64,813.50 C739.32,814.33 738.42,815.00 737.64,815.00 C736.85,815.00 735.95,815.67 735.64,816.50 C735.32,817.33 734.37,818.00 733.53,818.00 C732.69,818.00 732.00,818.45 732.00,819.00 C732.00,819.55 731.37,820.00 730.61,820.00 C729.84,820.00 728.95,820.67 728.64,821.50 C728.32,822.33 727.37,823.00 726.53,823.00 C725.69,823.00 725.00,823.45 725.00,824.00 C725.00,824.55 724.53,825.00 723.96,825.00 C723.39,825.00 721.93,825.92 720.73,827.04 C719.52,828.16 717.52,829.33 716.27,829.65 C715.02,829.96 714.00,830.62 714.00,831.11 C714.00,831.60 713.33,832.00 712.50,832.00 C711.67,832.00 711.00,832.42 711.00,832.93 C711.00,833.45 710.01,834.18 708.80,834.56 C707.58,834.95 705.98,835.88 705.23,836.63 C704.47,837.38 703.21,838.00 702.43,838.00 C701.64,838.00 701.00,838.36 701.00,838.80 C701.00,839.24 699.49,840.15 697.64,840.81 C695.79,841.48 692.98,843.15 691.39,844.51 C689.80,845.88 687.71,847.00 686.75,847.00 C685.79,847.00 685.00,847.39 685.00,847.88 C685.00,848.36 683.76,849.00 682.24,849.30 C680.72,849.61 678.46,850.74 677.21,851.81 C675.97,852.89 672.97,854.27 670.55,854.88 C668.13,855.49 665.44,856.70 664.58,857.57 C663.71,858.43 663.00,858.91 663.00,858.62 C663.00,858.34 661.65,858.57 660.00,859.15 C658.35,859.73 657.00,860.60 657.00,861.10 C657.00,861.59 655.88,862.00 654.50,862.00 C653.12,862.00 652.00,862.35 652.00,862.79 C652.00,863.22 651.03,863.65 649.84,863.74 C648.65,863.83 647.41,864.26 647.09,864.70 C646.77,865.14 646.05,865.53 645.50,865.56 C643.12,865.69 639.00,867.29 639.00,868.08 C639.00,868.55 638.33,868.68 637.50,868.36 C636.67,868.05 636.00,868.27 636.00,868.86 C636.00,869.45 635.33,869.68 634.50,869.36 C633.67,869.05 633.00,869.27 633.00,869.86 C633.00,870.45 632.33,870.68 631.50,870.36 C630.67,870.05 630.00,870.27 630.00,870.86 C630.00,871.45 629.33,871.68 628.50,871.36 C627.67,871.05 627.00,871.27 627.00,871.86 C627.00,872.45 626.33,872.68 625.50,872.36 C624.67,872.05 624.00,872.31 624.00,872.95 C624.00,873.59 623.60,873.87 623.10,873.56 C622.61,873.26 620.98,873.65 619.48,874.43 C617.98,875.20 616.18,875.62 615.48,875.35 C614.78,875.08 613.92,875.32 613.57,875.89 C613.22,876.45 612.28,876.66 611.47,876.35 C610.66,876.04 610.00,876.27 610.00,876.86 C610.00,877.45 609.37,877.70 608.60,877.40 C607.83,877.11 606.93,877.30 606.60,877.84 C606.27,878.37 605.10,878.58 604.00,878.29 C602.90,878.00 602.00,878.23 602.00,878.79 C602.00,879.35 601.10,879.58 600.00,879.29 C598.80,878.98 598.00,879.26 598.00,879.99 C598.00,880.71 597.33,880.96 596.37,880.59 C595.48,880.25 594.23,880.39 593.61,880.91 C592.46,881.86 585.39,883.09 581.30,883.05 C580.09,883.04 578.82,883.48 578.49,884.02 C578.15,884.56 576.83,884.74 575.55,884.42 C574.27,884.10 572.92,884.33 572.55,884.92 C572.18,885.52 570.83,885.74 569.55,885.42 C568.27,885.10 566.91,885.34 566.53,885.95 C566.12,886.62 564.54,886.82 562.54,886.44 C560.53,886.06 558.96,886.26 558.54,886.94 C558.11,887.63 556.54,887.82 554.49,887.43 C552.64,887.09 550.54,887.18 549.81,887.65 C548.35,888.60 547.71,888.62 512.15,889.14 C498.21,889.34 486.58,889.12 486.29,888.66 ZM 283.21 812.74 C282.42,812.41 281.83,811.92 281.80,811.50 C281.75,810.95 280.40,809.95 278.79,809.27 C277.18,808.59 276.14,807.58 276.49,807.02 C276.14,807.58 277.27,808.63 279.00,809.36 C280.72,810.08 282.08,811.09 282.01,811.59 C281.96,811.97 282.46,812.43 283.21,812.74 ZM 414.02 877.03 C414.01,877.01 414.00,876.99 413.98,876.97 C413.71,876.53 413.24,876.20 412.81,876.11 C413.47,876.03 414.00,876.37 414.00,876.89 C414.00,876.93 414.01,876.98 414.02,877.03 ZM 232.45 766.00 C231.60,766.00 229.84,764.22 228.61,762.44 C229.96,764.22 231.71,766.00 232.45,766.00 ZM 411.92 876.18 C410.83,876.24 408.97,875.90 407.33,875.43 C408.89,875.86 410.67,876.17 411.92,876.18 ZM 840.88 699.54 C842.04,697.50 843.33,695.19 844.64,692.77 C843.23,695.39 841.93,697.74 840.88,699.54 ZM 209.32 737.00 C208.93,736.47 208.41,736.24 208.01,736.50 C207.79,736.63 207.58,736.62 207.42,736.49 C207.59,736.62 207.82,736.61 208.07,736.46 C208.48,736.20 208.97,736.44 209.32,737.00 ZM 226.89 758.77 C226.51,758.33 225.85,757.85 225.11,757.50 C226.04,757.93 226.74,758.44 226.89,758.77 ZM 213.45 744.47 C213.17,744.03 213.00,743.54 213.00,743.08 C213.00,742.46 212.80,741.78 212.50,741.23 C212.81,741.73 213.00,742.37 213.00,743.00 C213.00,743.51 213.16,744.01 213.45,744.47 ZM 196.29 719.85 C196.09,719.75 195.85,719.72 195.63,719.79 C195.87,719.71 196.10,719.74 196.29,719.85 Z" fill="rgba(138,179,179,1)"/>
<path d="M 515.99 582.64 C514.90,583.89 513.47,584.89 511.39,586.50 C509.25,588.15 502.52,594.67 496.43,601.00 C459.77,639.08 452.99,650.15 453.01,671.93 C453.01,674.69 452.98,676.57 453.14,678.42 C453.57,683.41 455.43,688.28 463.32,710.00 C466.23,718.03 466.40,719.30 466.40,733.00 C466.40,744.23 465.92,749.54 464.28,756.57 C458.37,781.92 440.83,817.46 411.17,864.22 C407.78,869.57 405.00,874.14 405.00,874.39 C405.00,874.95 409.87,876.11 412.05,876.18 C409.35,876.21 404.00,874.70 404.00,873.78 C404.00,873.23 403.33,873.05 402.50,873.36 C401.67,873.68 401.00,873.47 401.00,872.90 C401.00,872.32 400.12,872.14 399.00,872.50 C397.88,872.86 397.00,872.68 397.00,872.10 C397.00,871.53 396.33,871.32 395.50,871.64 C394.67,871.95 394.00,871.73 394.00,871.14 C394.00,870.55 393.33,870.32 392.50,870.64 C391.67,870.96 391.00,870.67 391.00,870.00 C391.00,869.33 390.33,869.04 389.50,869.36 C388.67,869.68 388.00,869.45 388.00,868.86 C388.00,868.27 387.33,868.05 386.50,868.36 C385.67,868.68 385.00,868.47 385.00,867.91 C385.00,867.34 384.55,867.16 384.00,867.50 C383.45,867.84 383.00,867.59 383.00,866.95 C383.00,866.31 382.34,866.04 381.53,866.35 C380.72,866.66 379.79,866.47 379.46,865.94 C379.13,865.41 378.44,865.23 377.93,865.54 C377.42,865.86 377.00,865.61 377.00,865.00 C377.00,864.39 376.55,864.16 376.00,864.50 C375.45,864.84 375.00,864.59 375.00,863.95 C375.00,863.31 374.33,863.05 373.50,863.36 C372.67,863.68 372.00,863.47 372.00,862.91 C372.00,862.34 371.58,862.14 371.07,862.46 C370.56,862.77 369.85,862.57 369.50,862.00 C369.15,861.43 368.44,861.23 367.93,861.54 C367.42,861.86 367.00,861.61 367.00,861.00 C367.00,860.39 366.58,860.14 366.07,860.46 C365.56,860.77 364.85,860.57 364.50,860.00 C364.15,859.43 363.44,859.23 362.93,859.54 C362.42,859.86 362.00,859.61 362.00,859.00 C362.00,858.39 361.55,858.16 361.00,858.50 C360.45,858.84 360.00,858.64 360.00,858.06 C360.00,857.48 359.66,857.10 359.25,857.21 C358.84,857.33 357.55,856.90 356.38,856.25 C355.22,855.60 353.98,855.35 353.63,855.70 C353.28,856.05 353.00,855.78 353.00,855.11 C353.00,854.43 352.55,854.16 352.00,854.50 C351.45,854.84 351.00,854.61 351.00,854.00 C351.00,853.39 350.55,853.16 350.00,853.50 C349.45,853.84 349.00,853.64 349.00,853.06 C349.00,852.48 348.65,852.11 348.23,852.25 C346.99,852.65 339.00,848.79 339.00,847.79 C339.00,847.29 338.55,847.16 338.00,847.50 C337.45,847.84 337.00,847.61 337.00,847.00 C337.00,846.39 336.55,846.16 336.00,846.50 C335.45,846.84 335.00,846.61 335.00,846.00 C335.00,845.39 334.55,845.16 334.00,845.50 C333.45,845.84 333.00,845.67 333.00,845.12 C333.00,844.58 331.42,843.56 329.50,842.86 C327.58,842.17 326.00,841.21 326.00,840.74 C326.00,840.27 325.55,840.16 325.00,840.50 C324.45,840.84 324.00,840.65 324.00,840.08 C324.00,839.51 322.88,838.76 321.50,838.41 C320.12,838.07 319.00,837.41 319.00,836.96 C319.00,836.51 317.99,835.82 316.75,835.42 C315.51,835.03 313.77,833.88 312.88,832.86 C311.99,831.84 310.76,831.00 310.13,831.00 C309.51,831.00 309.00,830.53 309.00,829.96 C309.00,829.38 308.44,829.04 307.75,829.20 C305.98,829.60 298.87,825.02 299.55,823.91 C299.86,823.41 299.42,823.00 298.56,823.00 C297.70,823.00 297.00,822.55 297.00,822.00 C297.00,821.45 296.10,821.00 295.00,821.00 C293.90,821.00 293.00,820.60 293.00,820.12 C293.00,819.63 292.05,818.99 290.90,818.68 C289.74,818.38 289.08,817.69 289.41,817.14 C289.75,816.59 289.11,816.00 287.98,815.82 C286.85,815.64 285.97,815.05 286.02,814.50 C286.07,813.95 285.16,813.28 284.00,813.00 C282.84,812.72 281.94,812.09 282.01,811.59 C282.08,811.09 280.72,810.08 279.00,809.36 C277.27,808.63 276.14,807.58 276.49,807.02 C276.84,806.46 275.97,805.56 274.56,805.02 C273.15,804.49 272.00,803.63 272.00,803.11 C272.00,802.59 270.35,801.34 268.34,800.33 C266.33,799.32 264.87,798.18 265.09,797.78 C265.32,797.39 263.36,795.71 260.75,794.06 C258.14,792.40 256.00,790.45 256.00,789.72 C256.00,789.00 252.88,785.80 249.06,782.62 C245.24,779.44 240.24,774.40 237.94,771.42 C235.64,768.44 233.17,766.00 232.45,766.00 C231.08,766.00 226.22,759.88 226.89,759.00 C227.10,758.72 226.30,758.05 225.11,757.50 C223.92,756.95 222.40,755.27 221.73,753.75 C221.06,752.24 219.96,751.00 219.29,751.00 C217.95,751.00 215.44,747.04 216.71,746.94 C217.15,746.90 216.49,746.47 215.25,745.97 C213.94,745.44 213.00,744.21 213.00,743.00 C213.00,741.87 212.37,740.70 211.60,740.40 C210.83,740.10 209.96,738.95 209.67,737.83 C209.37,736.71 208.65,736.10 208.07,736.46 C207.45,736.84 207.00,736.29 207.00,735.17 C207.00,734.09 206.32,732.95 205.49,732.63 C204.66,732.32 204.10,731.48 204.24,730.78 C204.38,730.08 203.94,729.61 203.25,729.75 C202.56,729.89 202.00,729.15 202.00,728.11 C202.00,727.07 201.30,725.94 200.44,725.61 C199.58,725.28 199.14,724.59 199.46,724.07 C199.78,723.55 199.32,722.72 198.43,722.22 C197.55,721.73 196.75,720.91 196.66,720.41 C196.57,719.91 196.11,719.63 195.63,719.79 C195.15,719.95 195.03,719.37 195.36,718.50 C195.71,717.58 195.35,716.69 194.49,716.36 C193.68,716.05 193.26,715.38 193.57,714.89 C193.88,714.39 193.43,713.72 192.57,713.39 C191.71,713.06 191.26,712.39 191.56,711.90 C191.87,711.40 191.64,711.00 191.06,711.00 C190.48,711.00 190.00,710.33 190.00,709.50 C190.00,708.67 189.52,708.00 188.94,708.00 C188.36,708.00 188.14,707.58 188.46,707.06 C188.78,706.55 188.25,705.66 187.27,705.09 C186.30,704.52 185.86,704.05 186.29,704.03 C186.72,704.01 186.18,703.03 185.07,701.85 C183.97,700.67 183.28,699.36 183.53,698.95 C183.78,698.54 183.32,697.95 182.49,697.64 C181.67,697.32 181.00,696.37 181.00,695.53 C181.00,694.69 180.50,694.00 179.89,694.00 C179.28,694.00 179.05,693.33 179.36,692.50 C179.68,691.67 179.47,691.00 178.91,691.00 C178.34,691.00 178.16,690.55 178.50,690.00 C178.84,689.45 178.69,689.00 178.16,689.00 C176.94,689.00 172.93,681.40 173.73,680.60 C174.06,680.27 173.78,680.00 173.11,680.00 C172.43,680.00 172.16,679.55 172.50,679.00 C172.84,678.45 172.61,678.00 172.00,678.00 C171.39,678.00 171.16,677.55 171.50,677.00 C171.84,676.45 171.61,676.00 171.00,676.00 C170.39,676.00 170.13,675.60 170.44,675.10 C170.74,674.61 170.32,673.95 169.49,673.64 C168.67,673.32 168.00,672.49 167.99,671.78 C167.99,671.08 167.32,669.22 166.50,667.65 C165.68,666.08 165.26,664.39 165.56,663.90 C165.87,663.40 165.61,663.00 165.00,663.00 C164.39,663.00 164.16,662.55 164.50,662.00 C164.84,661.45 164.57,661.00 163.89,661.00 C163.22,661.00 162.95,660.72 163.29,660.38 C163.63,660.04 163.23,659.08 162.39,658.25 C161.56,657.42 161.11,656.16 161.38,655.45 C161.65,654.75 161.18,653.90 160.32,653.57 C159.36,653.20 158.97,652.23 159.29,650.99 C159.58,649.89 159.38,649.00 158.85,649.00 C158.32,649.00 158.16,648.55 158.50,648.00 C158.84,647.45 158.60,647.00 157.98,647.00 C157.35,647.00 157.02,646.44 157.25,645.76 C157.47,645.08 157.04,643.89 156.27,643.13 C155.51,642.37 155.12,641.13 155.41,640.37 C155.70,639.62 155.45,639.00 154.86,639.00 C154.27,639.00 154.05,638.33 154.36,637.50 C154.68,636.67 154.45,636.00 153.86,636.00 C153.27,636.00 153.05,635.33 153.36,634.50 C153.68,633.67 153.45,633.00 152.86,633.00 C152.27,633.00 152.05,632.33 152.36,631.50 C152.68,630.67 152.45,630.00 151.86,630.00 C151.27,630.00 151.05,629.33 151.36,628.50 C151.68,627.67 151.45,627.00 150.86,627.00 C150.27,627.00 150.05,626.33 150.36,625.50 C150.68,624.67 150.45,624.00 149.86,624.00 C149.27,624.00 149.05,623.33 149.36,622.50 C149.68,621.67 149.45,621.00 148.86,621.00 C148.27,621.00 148.03,620.35 148.34,619.56 C148.64,618.78 148.45,617.98 147.92,617.80 C147.38,617.63 146.84,616.14 146.72,614.49 C146.60,612.85 146.12,611.22 145.66,610.89 C145.20,610.55 144.75,608.75 144.66,606.89 C144.57,605.02 144.09,603.20 143.58,602.84 C143.07,602.47 142.62,600.56 142.58,598.59 C142.54,596.62 142.11,595.00 141.63,595.00 C141.16,595.00 141.00,594.10 141.29,593.00 C141.58,591.90 141.35,591.00 140.79,591.00 C140.23,591.00 139.98,589.88 140.24,588.50 C140.51,587.12 140.28,586.00 139.74,586.00 C139.18,586.00 139.00,584.73 139.34,583.07 C139.68,581.36 139.47,579.99 138.85,579.78 C138.26,579.59 137.71,576.85 137.64,573.71 C137.56,570.57 137.11,568.00 136.62,568.00 C136.14,568.00 136.02,566.65 136.35,565.00 C136.73,563.11 136.54,562.00 135.84,562.00 C135.13,562.00 134.93,560.58 135.27,558.00 C135.60,555.57 135.40,554.00 134.78,554.00 C134.14,554.00 133.93,552.07 134.23,548.97 C134.49,546.20 134.37,543.73 133.95,543.47 C132.19,542.38 132.36,482.51 134.13,481.42 C134.68,481.08 134.82,478.97 134.45,476.53 C134.05,473.82 134.21,471.99 134.91,471.56 C135.58,471.14 135.77,469.40 135.39,467.07 C135.03,464.77 135.21,462.99 135.86,462.59 C136.45,462.22 136.68,460.66 136.37,459.08 C136.05,457.48 136.28,455.95 136.90,455.56 C137.51,455.18 137.74,453.83 137.42,452.55 C137.10,451.27 137.33,449.92 137.92,449.55 C138.52,449.18 138.74,447.83 138.42,446.55 C138.10,445.27 138.34,443.91 138.96,443.52 C139.58,443.14 139.82,442.01 139.50,441.00 C139.18,439.99 139.37,438.89 139.92,438.55 C140.46,438.21 140.64,437.22 140.31,436.35 C139.84,435.15 140.16,434.91 141.60,435.36 C154.82,439.43 187.11,440.18 207.44,436.88 C222.05,434.50 239.12,434.70 248.73,437.36 C256.13,439.41 268.25,444.22 269.82,445.73 C270.55,446.43 271.79,447.00 272.57,447.00 C273.36,447.00 274.00,447.45 274.00,448.00 C274.00,448.55 274.63,449.00 275.39,449.00 C276.16,449.00 277.05,449.67 277.36,450.50 C277.68,451.33 278.52,452.00 279.23,452.00 C279.94,452.00 281.08,452.90 281.77,454.00 C282.45,455.10 283.67,456.00 284.47,456.00 C285.27,456.00 286.41,456.90 287.00,458.00 C287.59,459.10 288.68,460.00 289.43,460.00 C290.17,460.00 291.05,460.67 291.36,461.50 C291.68,462.33 292.63,463.00 293.47,463.00 C294.31,463.00 295.00,463.44 295.00,463.98 C295.00,464.52 296.12,465.24 297.50,465.59 C298.88,465.93 300.00,466.57 300.00,467.00 C300.00,468.31 311.90,472.81 323.68,475.96 C335.88,479.22 347.74,483.64 349.82,485.69 C350.55,486.41 352.23,487.27 353.57,487.61 C354.91,487.94 356.00,488.62 356.00,489.11 C356.00,489.60 356.69,490.00 357.53,490.00 C358.37,490.00 359.32,490.67 359.64,491.50 C359.95,492.33 360.55,493.00 360.96,493.00 C362.06,493.00 377.53,508.37 377.26,509.19 C377.14,509.58 378.38,510.85 380.03,512.02 C381.68,513.19 382.78,514.55 382.48,515.03 C382.19,515.51 382.87,516.39 384.00,517.00 C385.13,517.61 385.81,518.49 385.52,518.97 C385.22,519.45 386.34,520.82 388.00,522.00 C389.66,523.18 390.79,524.53 390.50,525.00 C390.21,525.47 391.36,526.83 393.05,528.03 C394.73,529.23 395.86,530.48 395.54,530.80 C394.73,531.61 402.11,539.00 403.73,539.00 C404.46,539.00 405.32,539.67 405.64,540.50 C405.95,541.33 406.84,542.00 407.61,542.00 C408.37,542.00 409.00,542.45 409.00,543.00 C409.00,543.55 409.67,544.00 410.50,544.00 C411.33,544.00 412.00,544.40 412.00,544.90 C412.00,546.13 427.75,552.63 435.34,554.54 C452.51,558.87 474.94,568.07 477.30,571.75 C477.74,572.44 478.46,573.00 478.91,573.00 C480.03,573.00 490.44,583.34 490.21,584.22 C490.10,584.62 490.93,585.43 492.04,586.02 C493.15,586.61 493.79,587.53 493.47,588.05 C493.15,588.57 493.39,589.00 494.00,589.00 C494.61,589.00 494.84,589.45 494.50,590.01 C494.15,590.56 494.57,591.28 495.43,591.61 C496.29,591.94 496.74,592.61 496.44,593.10 C496.13,593.60 496.39,594.00 497.00,594.00 C497.61,594.00 497.86,594.42 497.54,594.93 C497.23,595.44 497.43,596.15 498.00,596.50 C498.57,596.85 498.74,597.67 498.38,598.32 C498.02,598.97 499.92,597.23 502.61,594.45 C505.30,591.68 509.25,588.08 511.39,586.45 C513.47,584.87 514.90,583.88 515.99,582.64 Z" fill="rgba(161,187,113,1)"/>
<path d="M 867.67 379.78 C867.45,379.33 867.25,379.01 867.10,378.84 C866.32,377.97 847.14,381.29 837.27,384.00 C811.37,391.10 793.80,403.28 780.29,423.50 C764.28,447.46 752.73,456.09 730.06,461.04 C725.35,462.07 711.15,463.84 698.50,464.97 C661.94,468.25 649.28,470.82 635.59,477.71 C622.23,484.43 614.48,493.87 602.61,517.93 C592.63,538.12 583.51,549.23 572.23,554.91 C569.88,556.09 562.68,559.01 556.23,561.38 C542.17,566.56 533.66,570.74 525.20,576.62 C521.74,579.03 518.67,581.00 518.38,581.00 C518.09,581.00 517.28,581.56 516.57,582.25 C516.32,582.49 515.86,582.89 515.29,583.37 C518.59,580.22 519.03,576.58 522.46,556.65 C525.27,540.30 527.10,522.68 530.04,483.60 C533.92,431.99 537.13,417.45 552.98,379.53 C560.73,361.00 562.66,351.59 561.07,340.07 C558.30,320.01 546.14,301.67 520.79,279.32 C486.75,249.31 483.21,243.73 478.64,212.96 C476.85,200.96 474.42,172.06 473.45,151.32 L 472.78 137.13 L 476.64 136.32 C483.12,134.97 540.32,135.35 552.00,136.83 C628.05,146.43 698.02,176.01 755.50,222.85 C799.59,258.78 835.90,307.24 859.41,361.50 C862.51,368.65 865.53,375.35 866.12,376.40 C866.50,377.06 867.06,378.29 867.67,379.78 ZM 579.29 572.36 C588.41,568.51 592.51,565.64 598.70,559.71 C607.28,551.50 613.33,542.35 623.28,522.50 C627.97,513.15 633.41,503.66 635.35,501.40 C639.68,496.39 650.05,490.80 660.05,488.08 C667.12,486.15 683.55,483.86 700.00,482.51 C733.21,479.78 753.64,474.14 768.33,463.66 C776.32,457.96 782.80,450.89 790.94,439.01 C803.00,421.40 813.68,411.94 828.99,405.32 C836.04,402.28 853.24,397.50 866.25,394.97 C871.42,393.97 871.94,393.82 871.60,391.57 C871.86,392.82 872.80,395.95 874.03,399.60 C880.49,418.70 885.46,440.88 888.69,465.00 C890.96,481.97 891.28,537.83 889.19,553.00 C882.92,598.46 871.72,637.07 853.80,675.00 C848.73,685.72 837.91,705.39 835.99,707.38 C834.79,708.62 824.27,702.50 810.36,692.47 C794.95,681.36 784.12,676.18 764.50,670.54 C732.48,661.33 722.41,654.46 696.27,624.00 C681.65,606.97 675.95,601.44 666.65,595.30 C657.25,589.09 650.72,586.70 627.51,581.00 C611.95,577.17 605.57,575.09 598.69,571.61 L 589.87 567.15 L 586.59 569.08 C585.59,569.67 582.82,570.91 579.29,572.36 ZM 871.53 391.15 C871.51,391.07 871.50,390.99 871.48,390.90 C871.32,389.99 870.97,388.68 870.53,387.27 C871.27,389.41 871.74,391.00 871.55,391.00 C871.53,391.00 871.52,391.05 871.53,391.15 Z" fill="rgba(179,108,58,1)"/>
<path d="M 416.25 878.29 C415.01,878.06 414.00,877.42 414.00,876.89 C414.00,876.35 413.44,876.02 412.75,876.14 C411.23,876.43 405.00,875.02 405.00,874.39 C405.00,874.14 407.78,869.57 411.17,864.22 C440.83,817.46 458.37,781.92 464.28,756.57 C465.92,749.54 466.40,744.23 466.40,733.00 C466.40,719.30 466.23,718.03 463.32,710.00 C452.50,680.20 453.02,682.12 453.01,671.93 C452.99,650.15 459.77,639.08 496.43,601.00 C502.52,594.67 509.25,588.15 511.39,586.50 C513.53,584.85 515.86,582.94 516.57,582.25 C517.28,581.56 518.09,581.00 518.38,581.00 C518.67,581.00 521.74,579.03 525.20,576.62 C533.66,570.74 542.17,566.56 556.23,561.38 C562.68,559.01 569.88,556.09 572.23,554.91 C583.51,549.23 592.63,538.12 602.61,517.93 C614.48,493.87 622.23,484.43 635.59,477.71 C649.28,470.82 661.94,468.25 698.50,464.97 C711.15,463.84 725.35,462.07 730.06,461.04 C752.73,456.09 764.28,447.46 780.29,423.50 C793.80,403.28 811.37,391.10 837.27,384.00 C847.14,381.29 866.32,377.97 867.10,378.84 C868.09,379.93 870.92,387.73 871.48,390.90 C871.99,393.80 871.89,393.88 866.25,394.97 C853.24,397.50 836.04,402.28 828.99,405.32 C813.68,411.94 803.00,421.40 790.94,439.01 C782.80,450.89 776.32,457.96 768.33,463.66 C753.64,474.14 733.21,479.78 700.00,482.51 C683.55,483.86 667.12,486.15 660.05,488.08 C650.05,490.80 639.68,496.39 635.35,501.40 C633.41,503.66 627.97,513.15 623.28,522.50 C613.33,542.35 607.28,551.50 598.70,559.71 C590.70,567.37 586.20,569.93 569.89,576.07 C545.02,585.44 536.24,591.55 510.50,617.42 C491.43,636.58 480.39,649.73 476.73,657.67 C474.92,661.60 474.50,664.27 474.51,672.00 C474.52,681.21 474.69,681.93 480.21,695.69 C487.00,712.63 489.00,721.55 489.00,734.87 C489.00,752.29 484.95,767.88 474.99,788.74 C465.92,807.75 455.91,823.59 429.70,860.44 C418.46,876.25 418.06,876.99 420.64,877.02 C422.21,877.03 422.26,877.18 421.00,878.00 C420.17,878.53 419.27,878.91 419.00,878.85 C418.73,878.78 417.49,878.53 416.25,878.29 Z" fill="rgba(237,231,215,1)"/>
</g>
</svg>